<?xml version="1.0" encoding="utf-8"?>
<!-- Generator: Adobe Illustrator 22.0.1, SVG Export Plug-In . SVG Version: 6.00 Build 0)  -->
<svg version="1.1" id="圖層_4" xmlns="http://www.w3.org/2000/svg" xmlns:xlink="http://www.w3.org/1999/xlink" x="0px" y="0px"
	 viewBox="0 0 820 556.9" style="enable-background:new 0 0 820 556.9;" xml:space="preserve">
<style type="text/css">
	.st0{fill:none;}
</style>
<g>
	<rect x="454.7" y="444.6" class="st0" width="287.8" height="24.3"/>
	<path d="M455.2,450.5h2.1l1.3,5.4c0.2,1,0.4,1.9,0.5,2.8h0.1c0.2-0.9,0.4-1.9,0.6-2.8l1.4-5.4h1.9l1.4,5.4c0.2,1,0.4,1.9,0.7,2.8
		h0.1c0.2-0.9,0.4-1.9,0.6-2.8l1.3-5.4h1.9l-2.6,9.9h-2.5l-1.3-4.9c-0.2-0.9-0.4-1.8-0.6-2.9h-0.1c-0.2,1-0.4,1.9-0.6,2.9l-1.2,4.9
		h-2.4L455.2,450.5z"/>
	<path d="M470.1,450.5h2.1l1.3,5.4c0.2,1,0.4,1.9,0.5,2.8h0.1c0.2-0.9,0.4-1.9,0.6-2.8l1.4-5.4h1.9l1.4,5.4c0.2,1,0.4,1.9,0.7,2.8
		h0.1c0.2-0.9,0.4-1.9,0.6-2.8l1.3-5.4h1.9l-2.6,9.9H479l-1.3-4.9c-0.2-0.9-0.4-1.8-0.6-2.9H477c-0.2,1-0.4,1.9-0.6,2.9l-1.2,4.9
		h-2.4L470.1,450.5z"/>
	<path d="M485,450.5h2.1l1.3,5.4c0.2,1,0.4,1.9,0.5,2.8h0.1c0.2-0.9,0.4-1.9,0.6-2.8l1.4-5.4h1.9l1.4,5.4c0.2,1,0.4,1.9,0.7,2.8h0.1
		c0.2-0.9,0.4-1.9,0.6-2.8l1.3-5.4h1.9l-2.6,9.9h-2.5l-1.3-4.9c-0.2-0.9-0.4-1.8-0.6-2.9h-0.1c-0.2,1-0.4,1.9-0.6,2.9l-1.2,4.9h-2.4
		L485,450.5z"/>
	<path d="M500.7,459.2c0-0.8,0.6-1.5,1.4-1.5c0.8,0,1.4,0.6,1.4,1.5s-0.6,1.4-1.4,1.4C501.3,460.6,500.7,460.1,500.7,459.2z"/>
	<path d="M511.1,447.7c-0.4-0.2-0.7-0.3-1.1-0.3c-0.9,0-1.3,0.6-1.3,1.8v1.3h2v1.7h-2v8.2h-2.1v-8.2h-1.4v-1.5l1.4-0.1v-1.2
		c0-2,0.9-3.4,3.1-3.4c0.7,0,1.3,0.1,1.7,0.3L511.1,447.7z"/>
	<path d="M511.8,455.5c0-3.3,2.2-5.2,4.7-5.2s4.7,1.9,4.7,5.2c0,3.3-2.2,5.2-4.7,5.2S511.8,458.8,511.8,455.5z M519,455.5
		c0-2.1-1-3.5-2.5-3.5c-1.5,0-2.5,1.4-2.5,3.5c0,2.1,1,3.5,2.5,3.5C518.1,459,519,457.6,519,455.5z"/>
	<path d="M523.6,450.5h1.7l0.2,1.8h0.1c0.7-1.3,1.7-2,2.8-2c0.5,0,0.8,0.1,1.1,0.2l-0.4,1.8c-0.3-0.1-0.6-0.2-1-0.2
		c-0.8,0-1.8,0.6-2.4,2.1v6.2h-2.1V450.5z"/>
	<path d="M530.2,455.5c0-3.2,2.2-5.2,4.5-5.2c2.6,0,4,1.9,4,4.7c0,0.4,0,0.8-0.1,1h-6.4c0.2,1.9,1.4,3,3.1,3c0.9,0,1.6-0.3,2.4-0.7
		l0.7,1.3c-0.9,0.6-2.1,1-3.3,1C532.4,460.6,530.2,458.7,530.2,455.5z M537,454.6c0-1.7-0.8-2.7-2.2-2.7c-1.2,0-2.3,1-2.5,2.7H537z"
		/>
	<path d="M540.1,459.3l1-1.3c0.9,0.7,1.7,1.1,2.8,1.1c1.2,0,1.7-0.6,1.7-1.3c0-0.9-1.1-1.3-2.2-1.7c-1.3-0.5-2.8-1.2-2.8-2.9
		c0-1.7,1.3-2.9,3.5-2.9c1.3,0,2.4,0.5,3.2,1.2l-1,1.3c-0.7-0.5-1.4-0.9-2.2-0.9c-1.1,0-1.6,0.5-1.6,1.2c0,0.8,1,1.2,2.1,1.6
		c1.4,0.5,2.9,1.1,2.9,3c0,1.7-1.3,3-3.8,3C542.4,460.6,541,460.1,540.1,459.3z"/>
	<path d="M550.1,457.2v-5h-1.4v-1.5l1.5-0.1l0.2-2.7h1.7v2.7h2.6v1.7h-2.6v5c0,1.2,0.4,1.8,1.4,1.8c0.3,0,0.8-0.1,1.1-0.2l0.4,1.5
		c-0.6,0.2-1.2,0.4-1.9,0.4C550.9,460.6,550.1,459.3,550.1,457.2z"/>
	<path d="M556.6,459.2c0-0.8,0.6-1.5,1.4-1.5c0.8,0,1.4,0.6,1.4,1.5s-0.6,1.4-1.4,1.4C557.2,460.6,556.6,460.1,556.6,459.2z"/>
	<path d="M561.5,462.3c0-0.8,0.5-1.6,1.4-2.2V460c-0.5-0.3-0.9-0.8-0.9-1.6c0-0.8,0.6-1.4,1.1-1.8v-0.1c-0.7-0.5-1.3-1.5-1.3-2.6
		c0-2.3,1.8-3.6,3.8-3.6c0.6,0,1.1,0.1,1.4,0.3h3.5v1.5h-1.9c0.4,0.4,0.6,1.1,0.6,1.8c0,2.2-1.6,3.4-3.7,3.4c-0.5,0-1-0.1-1.4-0.3
		c-0.3,0.3-0.5,0.6-0.5,1c0,0.6,0.4,1,1.7,1h1.8c2.3,0,3.6,0.7,3.6,2.4c0,1.9-2,3.5-5.2,3.5C563.3,464.9,561.5,464,561.5,462.3z
		 M568.8,461.7c0-0.8-0.6-1.1-1.9-1.1h-1.5c-0.5,0-0.9-0.1-1.3-0.1c-0.6,0.4-0.8,0.9-0.8,1.4c0,1,1,1.5,2.6,1.5
		C567.7,463.5,568.8,462.6,568.8,461.7z M567.6,453.8c0-1.3-0.8-2.1-1.9-2.1c-1,0-1.9,0.8-1.9,2.1c0,1.3,0.8,2.1,1.9,2.1
		S567.6,455.1,567.6,453.8z"/>
	<path d="M571.9,455.5c0-3.3,2.2-5.2,4.7-5.2c2.4,0,4.7,1.9,4.7,5.2c0,3.3-2.2,5.2-4.7,5.2C574.2,460.6,571.9,458.8,571.9,455.5z
		 M579.2,455.5c0-2.1-1-3.5-2.5-3.5c-1.5,0-2.5,1.4-2.5,3.5c0,2.1,1,3.5,2.5,3.5C578.2,459,579.2,457.6,579.2,455.5z"/>
	<path d="M582.4,450.5h2.1l1.7,5.3c0.3,1,0.6,2,0.9,3h0.1c0.3-1,0.6-2,0.9-3l1.7-5.3h2l-3.4,9.9h-2.4L582.4,450.5z"/>
	<path d="M593.2,459.2c0-0.8,0.6-1.5,1.4-1.5s1.4,0.6,1.4,1.5s-0.6,1.4-1.4,1.4S593.2,460.1,593.2,459.2z"/>
	<path d="M599.2,457.2v-5h-1.4v-1.5l1.5-0.1l0.2-2.7h1.7v2.7h2.6v1.7h-2.6v5c0,1.2,0.4,1.8,1.4,1.8c0.3,0,0.8-0.1,1.1-0.2l0.4,1.5
		c-0.6,0.2-1.2,0.4-1.9,0.4C600,460.6,599.2,459.3,599.2,457.2z"/>
	<path d="M604.9,450.5h2.1l1.3,5.4c0.2,1,0.4,1.9,0.5,2.8h0.1c0.2-0.9,0.4-1.9,0.6-2.8l1.4-5.4h1.9l1.4,5.4c0.2,1,0.4,1.9,0.7,2.8
		h0.1c0.2-0.9,0.4-1.9,0.6-2.8l1.3-5.4h1.9l-2.6,9.9h-2.5l-1.3-4.9c-0.2-0.9-0.4-1.8-0.6-2.9h-0.1c-0.2,1-0.4,1.9-0.6,2.9l-1.2,4.9
		h-2.4L604.9,450.5z"/>
	<path d="M624.6,446h1.4l-5,17.6h-1.4L624.6,446z"/>
	<path d="M626.9,459.3l1-1.3c0.9,0.7,1.7,1.1,2.8,1.1c1.2,0,1.7-0.6,1.7-1.3c0-0.9-1.1-1.3-2.2-1.7c-1.3-0.5-2.8-1.2-2.8-2.9
		c0-1.7,1.3-2.9,3.5-2.9c1.3,0,2.4,0.5,3.2,1.2l-1,1.3c-0.7-0.5-1.4-0.9-2.2-0.9c-1.1,0-1.6,0.5-1.6,1.2c0,0.8,1,1.2,2.1,1.6
		c1.4,0.5,2.9,1.1,2.9,3c0,1.7-1.3,3-3.8,3C629.2,460.6,627.8,460.1,626.9,459.3z"/>
	<path d="M636.4,456.7v-6.2h2.1v6c0,1.7,0.5,2.4,1.7,2.4c0.9,0,1.5-0.4,2.4-1.5v-6.9h2.1v9.9h-1.7l-0.2-1.5h-0.1
		c-0.9,1-1.9,1.7-3.2,1.7C637.4,460.6,636.4,459.3,636.4,456.7z"/>
	<path d="M647,462.3c0-0.8,0.5-1.6,1.4-2.2V460c-0.5-0.3-0.9-0.8-0.9-1.6c0-0.8,0.6-1.4,1.1-1.8v-0.1c-0.7-0.5-1.3-1.5-1.3-2.6
		c0-2.3,1.8-3.6,3.8-3.6c0.6,0,1.1,0.1,1.4,0.3h3.5v1.5h-1.9c0.4,0.4,0.6,1.1,0.6,1.8c0,2.2-1.6,3.4-3.7,3.4c-0.5,0-1-0.1-1.4-0.3
		c-0.3,0.3-0.5,0.6-0.5,1c0,0.6,0.4,1,1.7,1h1.8c2.3,0,3.6,0.7,3.6,2.4c0,1.9-2,3.5-5.2,3.5C648.7,464.9,647,464,647,462.3z
		 M654.3,461.7c0-0.8-0.6-1.1-1.9-1.1H651c-0.5,0-0.9-0.1-1.3-0.1c-0.6,0.4-0.8,0.9-0.8,1.4c0,1,1,1.5,2.6,1.5
		C653.1,463.5,654.3,462.6,654.3,461.7z M653.1,453.8c0-1.3-0.8-2.1-1.9-2.1s-1.9,0.8-1.9,2.1c0,1.3,0.8,2.1,1.9,2.1
		S653.1,455.1,653.1,453.8z"/>
	<path d="M657.4,462.3c0-0.8,0.5-1.6,1.4-2.2V460c-0.5-0.3-0.9-0.8-0.9-1.6c0-0.8,0.6-1.4,1.1-1.8v-0.1c-0.7-0.5-1.3-1.5-1.3-2.6
		c0-2.3,1.8-3.6,3.8-3.6c0.6,0,1.1,0.1,1.4,0.3h3.5v1.5h-1.9c0.4,0.4,0.6,1.1,0.6,1.8c0,2.2-1.6,3.4-3.7,3.4c-0.5,0-1-0.1-1.4-0.3
		c-0.3,0.3-0.5,0.6-0.5,1c0,0.6,0.4,1,1.7,1h1.8c2.3,0,3.6,0.7,3.6,2.4c0,1.9-2,3.5-5.2,3.5C659.1,464.9,657.4,464,657.4,462.3z
		 M664.7,461.7c0-0.8-0.6-1.1-1.9-1.1h-1.5c-0.5,0-0.9-0.1-1.3-0.1c-0.6,0.4-0.8,0.9-0.8,1.4c0,1,1,1.5,2.6,1.5
		C663.6,463.5,664.7,462.6,664.7,461.7z M663.5,453.8c0-1.3-0.8-2.1-1.9-2.1s-1.9,0.8-1.9,2.1c0,1.3,0.8,2.1,1.9,2.1
		S663.5,455.1,663.5,453.8z"/>
	<path d="M667.8,455.5c0-3.2,2.2-5.2,4.5-5.2c2.6,0,4,1.9,4,4.7c0,0.4,0,0.8-0.1,1h-6.4c0.2,1.9,1.4,3,3.1,3c0.9,0,1.6-0.3,2.4-0.7
		l0.7,1.3c-0.9,0.6-2.1,1-3.3,1C670,460.6,667.8,458.7,667.8,455.5z M674.6,454.6c0-1.7-0.8-2.7-2.2-2.7c-1.2,0-2.3,1-2.5,2.7H674.6
		z"/>
	<path d="M677.7,459.3l1-1.3c0.9,0.7,1.7,1.1,2.8,1.1c1.2,0,1.7-0.6,1.7-1.3c0-0.9-1.1-1.3-2.2-1.7c-1.3-0.5-2.8-1.2-2.8-2.9
		c0-1.7,1.3-2.9,3.5-2.9c1.3,0,2.4,0.5,3.2,1.2l-1,1.3c-0.7-0.5-1.4-0.9-2.2-0.9c-1.1,0-1.6,0.5-1.6,1.2c0,0.8,1,1.2,2.1,1.6
		c1.4,0.5,2.9,1.1,2.9,3c0,1.7-1.3,3-3.8,3C680,460.6,678.6,460.1,677.7,459.3z"/>
	<path d="M687.7,457.2v-5h-1.4v-1.5l1.5-0.1l0.2-2.7h1.7v2.7h2.6v1.7h-2.6v5c0,1.2,0.4,1.8,1.4,1.8c0.3,0,0.8-0.1,1.1-0.2l0.4,1.5
		c-0.6,0.2-1.2,0.4-1.9,0.4C688.4,460.6,687.7,459.3,687.7,457.2z"/>
	<path d="M694.2,447.4c0-0.7,0.6-1.2,1.3-1.2s1.3,0.5,1.3,1.2c0,0.7-0.6,1.2-1.3,1.2S694.2,448.2,694.2,447.4z M694.5,450.5h2.1v9.9
		h-2.1V450.5z"/>
	<path d="M698.9,455.5c0-3.3,2.2-5.2,4.7-5.2c2.4,0,4.7,1.9,4.7,5.2c0,3.3-2.2,5.2-4.7,5.2C701.2,460.6,698.9,458.8,698.9,455.5z
		 M706.1,455.5c0-2.1-1-3.5-2.5-3.5c-1.5,0-2.5,1.4-2.5,3.5c0,2.1,1,3.5,2.5,3.5C705.2,459,706.1,457.6,706.1,455.5z"/>
	<path d="M710.7,450.5h1.7l0.2,1.4h0.1c0.9-0.9,1.9-1.6,3.3-1.6c2.1,0,3,1.4,3,3.9v6.2h-2.1v-6c0-1.7-0.5-2.4-1.7-2.4
		c-0.9,0-1.5,0.5-2.4,1.4v7h-2.1V450.5z"/>
</g>
<g>
	<path d="M455.2,450.5h2.1l1.3,5.4c0.2,1,0.4,1.9,0.5,2.8h0.1c0.2-0.9,0.4-1.9,0.6-2.8l1.4-5.4h1.9l1.4,5.4c0.2,1,0.4,1.9,0.7,2.8
		h0.1c0.2-0.9,0.4-1.9,0.6-2.8l1.3-5.4h1.9l-2.6,9.9h-2.5l-1.3-4.9c-0.2-0.9-0.4-1.8-0.6-2.9h-0.1c-0.2,1-0.4,1.9-0.6,2.9l-1.2,4.9
		h-2.4L455.2,450.5z"/>
	<path d="M470.1,450.5h2.1l1.3,5.4c0.2,1,0.4,1.9,0.5,2.8h0.1c0.2-0.9,0.4-1.9,0.6-2.8l1.4-5.4h1.9l1.4,5.4c0.2,1,0.4,1.9,0.7,2.8
		h0.1c0.2-0.9,0.4-1.9,0.6-2.8l1.3-5.4h1.9l-2.6,9.9H479l-1.3-4.9c-0.2-0.9-0.4-1.8-0.6-2.9H477c-0.2,1-0.4,1.9-0.6,2.9l-1.2,4.9
		h-2.4L470.1,450.5z"/>
	<path d="M485,450.5h2.1l1.3,5.4c0.2,1,0.4,1.9,0.5,2.8h0.1c0.2-0.9,0.4-1.9,0.6-2.8l1.4-5.4h1.9l1.4,5.4c0.2,1,0.4,1.9,0.7,2.8h0.1
		c0.2-0.9,0.4-1.9,0.6-2.8l1.3-5.4h1.9l-2.6,9.9h-2.5l-1.3-4.9c-0.2-0.9-0.4-1.8-0.6-2.9h-0.1c-0.2,1-0.4,1.9-0.6,2.9l-1.2,4.9h-2.4
		L485,450.5z"/>
	<path d="M500.7,459.2c0-0.8,0.6-1.5,1.4-1.5c0.8,0,1.4,0.6,1.4,1.5s-0.6,1.4-1.4,1.4C501.3,460.6,500.7,460.1,500.7,459.2z"/>
	<path d="M511.1,447.7c-0.4-0.2-0.7-0.3-1.1-0.3c-0.9,0-1.3,0.6-1.3,1.8v1.3h2v1.7h-2v8.2h-2.1v-8.2h-1.4v-1.5l1.4-0.1v-1.2
		c0-2,0.9-3.4,3.1-3.4c0.7,0,1.3,0.1,1.7,0.3L511.1,447.7z"/>
	<path d="M511.8,455.5c0-3.3,2.2-5.2,4.7-5.2s4.7,1.9,4.7,5.2c0,3.3-2.2,5.2-4.7,5.2S511.8,458.8,511.8,455.5z M519,455.5
		c0-2.1-1-3.5-2.5-3.5c-1.5,0-2.5,1.4-2.5,3.5c0,2.1,1,3.5,2.5,3.5C518.1,459,519,457.6,519,455.5z"/>
	<path d="M523.6,450.5h1.7l0.2,1.8h0.1c0.7-1.3,1.7-2,2.8-2c0.5,0,0.8,0.1,1.1,0.2l-0.4,1.8c-0.3-0.1-0.6-0.2-1-0.2
		c-0.8,0-1.8,0.6-2.4,2.1v6.2h-2.1V450.5z"/>
	<path d="M530.2,455.5c0-3.2,2.2-5.2,4.5-5.2c2.6,0,4,1.9,4,4.7c0,0.4,0,0.8-0.1,1h-6.4c0.2,1.9,1.4,3,3.1,3c0.9,0,1.6-0.3,2.4-0.7
		l0.7,1.3c-0.9,0.6-2.1,1-3.3,1C532.4,460.6,530.2,458.7,530.2,455.5z M537,454.6c0-1.7-0.8-2.7-2.2-2.7c-1.2,0-2.3,1-2.5,2.7H537z"
		/>
	<path d="M540.1,459.3l1-1.3c0.9,0.7,1.7,1.1,2.8,1.1c1.2,0,1.7-0.6,1.7-1.3c0-0.9-1.1-1.3-2.2-1.7c-1.3-0.5-2.8-1.2-2.8-2.9
		c0-1.7,1.3-2.9,3.5-2.9c1.3,0,2.4,0.5,3.2,1.2l-1,1.3c-0.7-0.5-1.4-0.9-2.2-0.9c-1.1,0-1.6,0.5-1.6,1.2c0,0.8,1,1.2,2.1,1.6
		c1.4,0.5,2.9,1.1,2.9,3c0,1.7-1.3,3-3.8,3C542.4,460.6,541,460.1,540.1,459.3z"/>
	<path d="M550.1,457.2v-5h-1.4v-1.5l1.5-0.1l0.2-2.7h1.7v2.7h2.6v1.7h-2.6v5c0,1.2,0.4,1.8,1.4,1.8c0.3,0,0.8-0.1,1.1-0.2l0.4,1.5
		c-0.6,0.2-1.2,0.4-1.9,0.4C550.9,460.6,550.1,459.3,550.1,457.2z"/>
	<path d="M556.6,459.2c0-0.8,0.6-1.5,1.4-1.5c0.8,0,1.4,0.6,1.4,1.5s-0.6,1.4-1.4,1.4C557.2,460.6,556.6,460.1,556.6,459.2z"/>
	<path d="M561.5,462.3c0-0.8,0.5-1.6,1.4-2.2V460c-0.5-0.3-0.9-0.8-0.9-1.6c0-0.8,0.6-1.4,1.1-1.8v-0.1c-0.7-0.5-1.3-1.5-1.3-2.6
		c0-2.3,1.8-3.6,3.8-3.6c0.6,0,1.1,0.1,1.4,0.3h3.5v1.5h-1.9c0.4,0.4,0.6,1.1,0.6,1.8c0,2.2-1.6,3.4-3.7,3.4c-0.5,0-1-0.1-1.4-0.3
		c-0.3,0.3-0.5,0.6-0.5,1c0,0.6,0.4,1,1.7,1h1.8c2.3,0,3.6,0.7,3.6,2.4c0,1.9-2,3.5-5.2,3.5C563.3,464.9,561.5,464,561.5,462.3z
		 M568.8,461.7c0-0.8-0.6-1.1-1.9-1.1h-1.5c-0.5,0-0.9-0.1-1.3-0.1c-0.6,0.4-0.8,0.9-0.8,1.4c0,1,1,1.5,2.6,1.5
		C567.7,463.5,568.8,462.6,568.8,461.7z M567.6,453.8c0-1.3-0.8-2.1-1.9-2.1c-1,0-1.9,0.8-1.9,2.1c0,1.3,0.8,2.1,1.9,2.1
		S567.6,455.1,567.6,453.8z"/>
	<path d="M571.9,455.5c0-3.3,2.2-5.2,4.7-5.2c2.4,0,4.7,1.9,4.7,5.2c0,3.3-2.2,5.2-4.7,5.2C574.2,460.6,571.9,458.8,571.9,455.5z
		 M579.2,455.5c0-2.1-1-3.5-2.5-3.5c-1.5,0-2.5,1.4-2.5,3.5c0,2.1,1,3.5,2.5,3.5C578.2,459,579.2,457.6,579.2,455.5z"/>
	<path d="M582.4,450.5h2.1l1.7,5.3c0.3,1,0.6,2,0.9,3h0.1c0.3-1,0.6-2,0.9-3l1.7-5.3h2l-3.4,9.9h-2.4L582.4,450.5z"/>
	<path d="M593.2,459.2c0-0.8,0.6-1.5,1.4-1.5s1.4,0.6,1.4,1.5s-0.6,1.4-1.4,1.4S593.2,460.1,593.2,459.2z"/>
	<path d="M599.2,457.2v-5h-1.4v-1.5l1.5-0.1l0.2-2.7h1.7v2.7h2.6v1.7h-2.6v5c0,1.2,0.4,1.8,1.4,1.8c0.3,0,0.8-0.1,1.1-0.2l0.4,1.5
		c-0.6,0.2-1.2,0.4-1.9,0.4C600,460.6,599.2,459.3,599.2,457.2z"/>
	<path d="M604.9,450.5h2.1l1.3,5.4c0.2,1,0.4,1.9,0.5,2.8h0.1c0.2-0.9,0.4-1.9,0.6-2.8l1.4-5.4h1.9l1.4,5.4c0.2,1,0.4,1.9,0.7,2.8
		h0.1c0.2-0.9,0.4-1.9,0.6-2.8l1.3-5.4h1.9l-2.6,9.9h-2.5l-1.3-4.9c-0.2-0.9-0.4-1.8-0.6-2.9h-0.1c-0.2,1-0.4,1.9-0.6,2.9l-1.2,4.9
		h-2.4L604.9,450.5z"/>
	<path d="M624.6,446h1.4l-5,17.6h-1.4L624.6,446z"/>
	<path d="M626.9,459.3l1-1.3c0.9,0.7,1.7,1.1,2.8,1.1c1.2,0,1.7-0.6,1.7-1.3c0-0.9-1.1-1.3-2.2-1.7c-1.3-0.5-2.8-1.2-2.8-2.9
		c0-1.7,1.3-2.9,3.5-2.9c1.3,0,2.4,0.5,3.2,1.2l-1,1.3c-0.7-0.5-1.4-0.9-2.2-0.9c-1.1,0-1.6,0.5-1.6,1.2c0,0.8,1,1.2,2.1,1.6
		c1.4,0.5,2.9,1.1,2.9,3c0,1.7-1.3,3-3.8,3C629.2,460.6,627.8,460.1,626.9,459.3z"/>
	<path d="M636.4,456.7v-6.2h2.1v6c0,1.7,0.5,2.4,1.7,2.4c0.9,0,1.5-0.4,2.4-1.5v-6.9h2.1v9.9h-1.7l-0.2-1.5h-0.1
		c-0.9,1-1.9,1.7-3.2,1.7C637.4,460.6,636.4,459.3,636.4,456.7z"/>
	<path d="M647,462.3c0-0.8,0.5-1.6,1.4-2.2V460c-0.5-0.3-0.9-0.8-0.9-1.6c0-0.8,0.6-1.4,1.1-1.8v-0.1c-0.7-0.5-1.3-1.5-1.3-2.6
		c0-2.3,1.8-3.6,3.8-3.6c0.6,0,1.1,0.1,1.4,0.3h3.5v1.5h-1.9c0.4,0.4,0.6,1.1,0.6,1.8c0,2.2-1.6,3.4-3.7,3.4c-0.5,0-1-0.1-1.4-0.3
		c-0.3,0.3-0.5,0.6-0.5,1c0,0.6,0.4,1,1.7,1h1.8c2.3,0,3.6,0.7,3.6,2.4c0,1.9-2,3.5-5.2,3.5C648.7,464.9,647,464,647,462.3z
		 M654.3,461.7c0-0.8-0.6-1.1-1.9-1.1H651c-0.5,0-0.9-0.1-1.3-0.1c-0.6,0.4-0.8,0.9-0.8,1.4c0,1,1,1.5,2.6,1.5
		C653.1,463.5,654.3,462.6,654.3,461.7z M653.1,453.8c0-1.3-0.8-2.1-1.9-2.1s-1.9,0.8-1.9,2.1c0,1.3,0.8,2.1,1.9,2.1
		S653.1,455.1,653.1,453.8z"/>
	<path d="M657.4,462.3c0-0.8,0.5-1.6,1.4-2.2V460c-0.5-0.3-0.9-0.8-0.9-1.6c0-0.8,0.6-1.4,1.1-1.8v-0.1c-0.7-0.5-1.3-1.5-1.3-2.6
		c0-2.3,1.8-3.6,3.8-3.6c0.6,0,1.1,0.1,1.4,0.3h3.5v1.5h-1.9c0.4,0.4,0.6,1.1,0.6,1.8c0,2.2-1.6,3.4-3.7,3.4c-0.5,0-1-0.1-1.4-0.3
		c-0.3,0.3-0.5,0.6-0.5,1c0,0.6,0.4,1,1.7,1h1.8c2.3,0,3.6,0.7,3.6,2.4c0,1.9-2,3.5-5.2,3.5C659.1,464.9,657.4,464,657.4,462.3z
		 M664.7,461.7c0-0.8-0.6-1.1-1.9-1.1h-1.5c-0.5,0-0.9-0.1-1.3-0.1c-0.6,0.4-0.8,0.9-0.8,1.4c0,1,1,1.5,2.6,1.5
		C663.6,463.5,664.7,462.6,664.7,461.7z M663.5,453.8c0-1.3-0.8-2.1-1.9-2.1s-1.9,0.8-1.9,2.1c0,1.3,0.8,2.1,1.9,2.1
		S663.5,455.1,663.5,453.8z"/>
	<path d="M667.8,455.5c0-3.2,2.2-5.2,4.5-5.2c2.6,0,4,1.9,4,4.7c0,0.4,0,0.8-0.1,1h-6.4c0.2,1.9,1.4,3,3.1,3c0.9,0,1.6-0.3,2.4-0.7
		l0.7,1.3c-0.9,0.6-2.1,1-3.3,1C670,460.6,667.8,458.7,667.8,455.5z M674.6,454.6c0-1.7-0.8-2.7-2.2-2.7c-1.2,0-2.3,1-2.5,2.7H674.6
		z"/>
	<path d="M677.7,459.3l1-1.3c0.9,0.7,1.7,1.1,2.8,1.1c1.2,0,1.7-0.6,1.7-1.3c0-0.9-1.1-1.3-2.2-1.7c-1.3-0.5-2.8-1.2-2.8-2.9
		c0-1.7,1.3-2.9,3.5-2.9c1.3,0,2.4,0.5,3.2,1.2l-1,1.3c-0.7-0.5-1.4-0.9-2.2-0.9c-1.1,0-1.6,0.5-1.6,1.2c0,0.8,1,1.2,2.1,1.6
		c1.4,0.5,2.9,1.1,2.9,3c0,1.7-1.3,3-3.8,3C680,460.6,678.6,460.1,677.7,459.3z"/>
	<path d="M687.7,457.2v-5h-1.4v-1.5l1.5-0.1l0.2-2.7h1.7v2.7h2.6v1.7h-2.6v5c0,1.2,0.4,1.8,1.4,1.8c0.3,0,0.8-0.1,1.1-0.2l0.4,1.5
		c-0.6,0.2-1.2,0.4-1.9,0.4C688.4,460.6,687.7,459.3,687.7,457.2z"/>
	<path d="M694.2,447.4c0-0.7,0.6-1.2,1.3-1.2s1.3,0.5,1.3,1.2c0,0.7-0.6,1.2-1.3,1.2S694.2,448.2,694.2,447.4z M694.5,450.5h2.1v9.9
		h-2.1V450.5z"/>
	<path d="M698.9,455.5c0-3.3,2.2-5.2,4.7-5.2c2.4,0,4.7,1.9,4.7,5.2c0,3.3-2.2,5.2-4.7,5.2C701.2,460.6,698.9,458.8,698.9,455.5z
		 M706.1,455.5c0-2.1-1-3.5-2.5-3.5c-1.5,0-2.5,1.4-2.5,3.5c0,2.1,1,3.5,2.5,3.5C705.2,459,706.1,457.6,706.1,455.5z"/>
	<path d="M710.7,450.5h1.7l0.2,1.4h0.1c0.9-0.9,1.9-1.6,3.3-1.6c2.1,0,3,1.4,3,3.9v6.2h-2.1v-6c0-1.7-0.5-2.4-1.7-2.4
		c-0.9,0-1.5,0.5-2.4,1.4v7h-2.1V450.5z"/>
</g>
</svg>
