<?xml version="1.0" encoding="utf-8"?>
<!-- Generator: Adobe Illustrator 22.0.1, SVG Export Plug-In . SVG Version: 6.00 Build 0)  -->
<svg version="1.1" xmlns="http://www.w3.org/2000/svg" xmlns:xlink="http://www.w3.org/1999/xlink" x="0px" y="0px"
	 viewBox="0 0 1080 839.8" style="enable-background:new 0 0 1080 839.8;" xml:space="preserve">
<style type="text/css">
	.st0{fill:#E6E6E6;}
	.st1{fill:#4A3829;}
	.st2{fill:none;}
	.st3{fill:#EEEEEE;}
	.st4{fill:#FFFFFF;}
	.st5{fill:none;stroke:#000000;stroke-miterlimit:10;}
	.st6{fill:none;stroke:#4A3829;stroke-width:9;stroke-linecap:round;stroke-linejoin:round;stroke-miterlimit:10;}
	.st7{fill:none;stroke:#1C2E30;stroke-width:9;stroke-linecap:round;stroke-linejoin:round;stroke-miterlimit:10;}
	.st8{fill:#1C2E30;}
	.st9{fill:none;stroke:#8C6239;stroke-width:9;stroke-linecap:round;stroke-linejoin:round;stroke-miterlimit:10;}
	.st10{fill:#8C6239;}
	.st11{fill:none;stroke:#FBB03B;stroke-width:9;stroke-linecap:round;stroke-linejoin:round;stroke-miterlimit:10;}
	.st12{fill:#FBB03B;}
</style>
<g id="back">
	<rect y="-1.5" class="st0" width="1080" height="834.5"/>
	<rect y="-1.5" class="st1" width="1080" height="10.6"/>
	<rect y="827.3" class="st1" width="1080" height="10.6"/>
	<rect x="245.1" y="-1" class="st1" width="584.6" height="157.7"/>
</g>
<g id="others">
	<g>
		<rect x="228.3" y="31.2" class="st2" width="618.2" height="62.7"/>
		<path class="st3" d="M310.1,69.1c-1.5,5.5-4.8,10.5-12,13.9c1.8,0.1,3.7,0.1,5.7,0.1c7,0,18-0.6,24.8-1.6c-0.9,2-2,5.5-2.1,7.5
			c-5.1,0.3-15.9,0.7-23,0.7c-8.2,0-13.2-0.7-17.7-3.2c-2.6-1.4-4.7-3.4-5.9-3.4c-1.4,0-3.5,4.2-4.8,7.7l-4.9-7
			c2.6-3.2,5.3-5.5,7.6-6.6c1.5-2.9,2.8-6.7,3.7-10.3h-8.2c1.4-3.4,3-8.3,4.5-12.9h-6.5v-6.5h15.1c-1.3,4.2-2.9,8.9-4.4,13.1h3.5
			l1-0.3l3.1,1.3c-1.3,5.9-3.3,12-5.8,16.7c0.8,0.6,1.7,1.2,2.9,1.9c2.9,1.7,6.6,2.5,10.9,2.8c-0.9-1.6-2.9-3.9-4.4-5.1
			c5.5-1.9,8.2-5.1,9.5-8.7h-11.6V51.4h6.7v11.4h6c0-0.5,0-1,0-1.5V48.9h-16v-6.4h9c-1-2.1-2.7-4.6-4.2-6.6l5.8-2.9
			c2,2.3,4.3,5.4,5.2,7.6l-3.6,1.8h10.2c1.7-2.8,3.7-6.5,4.7-9.3l7.7,1.8c-1.5,2.7-3.1,5.3-4.6,7.5h8.9v6.4H311v12.5
			c0,0.5,0,1,0,1.5h6.3V51.3h7.1v17.8H310.1z M278.1,46c-0.8-2.7-2.3-7-3.4-10.2l6.7-2c1.1,3.2,2.6,7.3,3.6,9.9L278.1,46z"/>
		<path class="st3" d="M382.4,39.9c-0.1,12.7-0.2,23.3,1.4,23.3c0.7,0.1,0.9-3,0.9-7c1.2,1.5,2.7,3.1,3.9,4.2
			c-0.5,6.2-1.5,9.2-5.4,9.2c-6.3,0-7.1-10.2-7.3-23.8h-4.2c-0.2,2.8-0.6,5.4-1.2,7.7c2.3,1.3,4.3,2.6,5.8,3.6l-3.1,5.2
			c-1.2-0.9-2.8-1.9-4.5-3.1c-1.5,3.7-3.9,6.6-7.4,9c-0.7-1.3-2.2-3.2-3.5-4.2v2.9c-9.5,0.7-19.3,1.3-26.4,1.8l-0.4-5.1
			c2.9-0.1,6.6-0.3,10.6-0.5v-2.9h-8.2v-4.3h8.2v-2.7h6c-1-0.9-1.2-2.5-1.2-4.5v-1.2h-3.2c-1.3,4.2-4.7,6.9-9.8,8.3
			c-0.5-1.1-1.8-3.2-2.7-4.2c3.5-0.7,6.1-1.8,7.1-4.1h-6.4v-4.6h10.2v-2.2h-8.3v-4.3h8.3v-3.1h6.6v3.1h8.5v4.3h-8.5v2.2H359v4.6
			h-7.2v1.3c0,1,0.1,1.5,0.9,1.5h2.1c0.7,0,2.3-0.1,3.1-0.4c0.1,1.3,0.1,2.6,0.3,4c-0.7,0.2-2.1,0.4-3.3,0.4h-3.7
			c-1.3,0-2.2-0.2-2.9-0.6v2.3h8.6v4.3h-8.6v2.5l9.5-0.6v1.1c2.7-2,4.5-4.4,5.6-7.3c-1.7-1-3.3-2-4.8-2.9l3.1-4.5l3.3,1.8
			c0.2-1.4,0.4-3,0.6-4.7h-5.5v-5.8h5.8c0.1-2.1,0.1-4.2,0.1-6.6h6.2c-0.1,2.3-0.1,4.5-0.2,6.6H382.4z M382.5,71.3
			c0,0-0.1,1.9-0.3,2.8c-0.9,8.4-2,12.5-3.7,14.2c-1.5,1.5-3.2,2-5.4,2.1c-1.9,0.2-5.2,0.2-8.8,0.1c-0.1-2.1-0.9-4.7-2.1-6.6
			c3.1,0.3,6.4,0.4,7.7,0.4c1.2,0,1.8-0.1,2.5-0.6c0.9-0.7,1.5-2.8,2-6.8h-14c-2.8,7.2-9.1,11.5-25.3,13.8c-0.5-1.8-2.1-4.4-3.2-5.9
			c12.4-1.3,18-3.8,20.6-7.8h-17v-5.5h19c0.2-1,0.4-2,0.5-3.1h7.4c-0.1,1.1-0.3,2.1-0.4,3.1H382.5z"/>
		<path class="st3" d="M408.2,69.5l1.3,6.5c-5.9,2.5-12.3,5-17.5,7.2l-2.3-7.3c1.9-0.6,4.1-1.3,6.6-2.1V54.5h-5.6v-6.7h5.6V34h6.7
			v13.7h5.4v6.7h-5.4v16.8L408.2,69.5z M444.4,42.1v21.2h-33.9V42.1h7.3c-0.9-2-2.4-4.5-3.8-6.4l6.3-2.5c1.7,2.1,3.5,5.1,4.4,7
			l-4.2,2h9.6c1.6-2.6,3.5-6.3,4.5-9l7.7,2.3c-1.6,2.3-3.2,4.7-4.8,6.7H444.4z M413.4,65.8h28.4v24.6h-6.9v-2.9h-15v2.9h-6.6V65.8z
			 M416.2,58.5h8.3V46.8h-8.3V58.5z M420.5,47.8c1.7,2.6,3.2,6.1,3.6,8.5l-3.9,1.5c-0.4-2.3-1.9-5.9-3.5-8.6L420.5,47.8z M420,71.1
			v3.3h15v-3.3H420z M434.9,82.3v-2.8h-15v2.8H434.9z M429.8,46.8v11.7h8.4V46.8H429.8z M430.2,56.3c1.3-2.3,2.8-5.9,3.6-8.5
			l4.5,1.5c-1.7,2.9-3.3,6.1-4.7,8.2L430.2,56.3z"/>
		<path class="st3" d="M506.6,83.1V89h-45.1v-5.9h18.6v-3.6h-13v-4.4c-1.1,1.4-2.3,2.6-3.5,3.7c-0.4-1.3-1.8-4.4-2.9-6.1
			c-0.7,6.4-2.5,13.4-6.6,18.4c-1.1-1.3-4.1-3.9-5.6-4.7c5-6.1,5.5-14.8,5.5-21.1V54.4h8.3c-1-1-2.2-2.1-3.1-2.8
			c4.4-0.7,9.3-1.5,14-2.6c-3.9-1-7.8-1.8-11.5-2.5l3.4-2.6h-10.5v-5.7h21.3c-0.7-1.2-1.6-2.3-2.3-3.2l4.9-2.4
			c1.4,1.6,3.1,3.7,4.1,5.6h21.2v5.7h-8.9l2.9,1.8c-2.2,1-4.8,2.1-7.5,3.1c3.6,1,6.9,2,9.7,2.9l-3.4,2.8h9v5.8h-44.5v5.1
			c0,2-0.1,4.1-0.3,6.4c2.9-2.9,5.5-6.8,7-11l6.2,1.8c-0.3,0.8-0.6,1.6-1,2.5h7.1v-3.7h7.2v3.7h15.1v5.7h-15.1V74h13.4v5.6h-13.4
			v3.6H506.6z M480.1,74v-3.2h-10c-0.7,1.1-1.3,2.1-2.1,3.2H480.1z M492.6,54.4c-3-1-6.7-2.1-10.5-3.1c-4.4,1.2-8.9,2.2-13.2,3.1
			H492.6z M470.6,43.8c3.9,0.9,7.9,1.8,12,2.8c2.9-0.8,5.8-1.8,8-2.8H470.6z"/>
		<path class="st3" d="M564.5,42.7c0,0,0,2.5-0.1,3.3c-0.8,27.4-1.5,37.1-4,40.4c-1.7,2.3-3.4,2.9-5.9,3.4c-2.3,0.3-6,0.2-9.6,0.1
			c-0.1-2-1.1-5.1-2.4-7.1c3.9,0.4,7.5,0.4,9.1,0.4c1.2,0,1.9-0.2,2.7-1c1.8-2,2.6-11.2,3.2-32.8h-13.1c-1.6,3.7-3.5,7-5.4,9.7
			c-1-0.9-3.1-2.3-4.7-3.4v28.6H518v4.5h-6.6V43.1h6.9c0.8-3.1,1.5-7,1.8-9.9l8,1.1c-1,3.1-2.1,6.1-3.2,8.8h9.5V53
			c3.6-5.1,6.5-12.6,8.3-19.7l6.9,1.6c-0.6,2.6-1.5,5.2-2.4,7.8H564.5z M527.7,49.5H518v9.9h9.7V49.5z M527.7,77.7v-12H518v12H527.7
			z M548.1,74.4c-1.7-3.7-5.5-9.7-8.5-14.2l5.7-3.2c3.1,4.2,7.1,10.1,9,13.6L548.1,74.4z"/>
		<path class="st3" d="M624,36.3v4.5h-23.7v2h18.8V47h-44.3v-4.2H593v-2h-23.2v-4.5H593v-3.1h7.4v3.1H624z M600.3,84.3h23.4v4.9
			h-53.4v-4.9H593v-2h-16.8V78H593v-1.8c-10.5,0.2-12.3,0.4-13.7,0.9c-0.2-1-1-3.2-1.5-4.5c0.9-0.1,2.1-0.4,3.2-0.8
			c0.7-0.2,2.3-0.9,4.2-1.8h-8.3v-1h-6.4v-9.1h52.8V69h-6.9v-4.6H577v1.8h39.2V70h-4.4c2.7,1.6,5.1,3.4,6.8,4.7l-4,3.3h3.6v4.3h-18
			V84.3z M617.2,48.8v9.3H577v-9.3H617.2z M610,52.4h-26.4v2.1H610V52.4z M593.1,70c-1.4,0.9-2.8,1.7-4.1,2.3l16.8-0.2
			c-1.2-0.7-2.3-1.3-3.3-1.8l0.3-0.2H593.1z M600.3,78h13.7c-0.7-0.7-1.7-1.5-2.8-2.3l-11,0.3V78z"/>
		<path class="st3" d="M659.5,45.1c-0.2,1.7-0.6,3.1-0.9,4.6h22.5V83c0,3.6-0.9,5.2-3.4,6.3c-2.5,1-6.1,1-11,1
			c-0.3-1.8-1.4-4.5-2.3-6.2c2.9,0.2,6.8,0.2,7.7,0.1c1.1,0,1.4-0.3,1.4-1.3V56.4h-11.7l6.1,1.2c-0.9,2.3-1.7,4.5-2.6,6.4h4.5v5.6
			h-10.4v4h11.7v5.9h-11.7v9.1h-6.9v-9.1h-11.3v-5.9h11.3v-4h-10.1v-5.6h4.7c-0.6-1.8-1.5-4.3-2.4-6.2l5.8-1.4
			c1.1,2.1,2.3,4.8,2.8,6.7l-3.2,0.9h8.9c0.9-2.4,1.8-5.4,2.3-7.7h-22.6v33.9h-7.4V49.7h19.9c0.2-1.5,0.5-2.9,0.7-4.6h-22.9v-6.8
			h23.6c0.1-1.8,0.2-3.6,0.3-5.1l8.1,0.7c-0.2,1.4-0.4,2.9-0.6,4.4h22.8v6.8H659.5z"/>
		<path class="st3" d="M734.4,50.6c-3.1,8.8-7.3,16-12.6,21.9c6.3,4.9,14,8.5,23.2,10.6c-1.7,1.6-3.8,4.8-4.9,6.8
			c-9.6-2.6-17.5-6.6-24-12c-6.7,5.5-15,9.6-24.8,12.4c-0.8-1.7-2.9-5.1-4.4-6.8c9.6-2.4,17.5-5.9,23.8-10.8
			c-5.5-6.1-9.7-13.4-13.1-22.1H688v-7.1h25.9c-0.7-2.5-2-5.9-3.4-8.6l7.8-2.3c1.6,2.8,3.4,6.7,4.2,9.3l-5.3,1.7h26.7v7.1H734.4z
			 M705.1,50.6c2.6,6.4,6.3,12.1,11,17c4.2-4.7,7.6-10.2,10-17H705.1z"/>
		<path class="st3" d="M790.5,35c-0.2,0.7-0.5,1.4-0.8,2.1c3.3,6.3,8.9,12.3,14.8,15.4c-1.6,1.4-3.9,4-5.1,5.9
			c-1.1-0.7-2.1-1.6-3.2-2.5v3.3h-19.6v-3.1c-1.2,1-2.5,2-3.8,2.9c-0.6-0.9-1.5-2-2.6-3.1v11h-8v10.4l3.5-0.5c-0.5-2-1-4-1.6-5.9
			l5.3-1.6c1.7,5,3.2,11.2,4,15.4l-5.7,1.8c-0.1-1-0.4-2.3-0.6-3.6c-7,1.2-14.2,2.5-19.8,3.4l-1.2-6.9c2.8-0.3,6.1-0.7,9.8-1.2V66.9
			h-2.3v2.8h-5.4V44.4h7.8v-11h6.3v11h8V52c6.2-4.7,10.9-11.6,13.4-18.8L790.5,35z M753.6,61.1h3V50.2h-3V61.1z M764.8,50.2h-3.2
			v10.9h3.2V50.2z M773.5,90.6V64.6h25.9v26h-7v-2.9h-12.1v2.9H773.5z M793.1,52.9c-2.5-2.6-4.7-5.7-6.6-9c-1.9,3.4-4,6.4-6.6,9
			H793.1z M780.2,71v10.2h12.1V71H780.2z"/>
	</g>
	<g>
		<rect x="298.5" y="106.8" class="st2" width="477.7" height="50.9"/>
		<path class="st4" d="M365.4,113.2v12.6h-1.4v-1.7h-9v9.4h-1.4v-9.4h-9v1.8h-1.3v-12.7h10.4v-5.1h1.4v5.1H365.4z M353.6,122.8v-8.3
			h-9v8.3H353.6z M364.1,122.8v-8.3h-9v8.3H364.1z"/>
		<path class="st4" d="M382.9,112.5c-0.1,1.2-0.3,2.5-0.4,3.5h10.5v15.6c0,1-0.3,1.5-1,1.7c-0.8,0.2-2.4,0.2-4.6,0.2
			c-0.1-0.4-0.3-0.9-0.5-1.3c2,0.1,3.7,0.1,4.2,0.1c0.5,0,0.6-0.2,0.6-0.6v-14.4h-18.2v16.2H372V116h9.2c0.1-1,0.3-2.2,0.4-3.5
			h-11.4v-1.3h11.5c0.1-1.1,0.2-2.2,0.2-3.1l1.4,0.2c-0.1,0.9-0.2,2-0.3,3h11.6v1.3H382.9z M383,127.7v5.4h-1.3v-5.4h-6.5v-1.2h6.5
			V123h-5.9v-1.2h8.5c0.7-1.2,1.5-2.9,1.9-4.1l1.2,0.3c-0.6,1.3-1.3,2.6-1.9,3.8h3.8v1.2H383v3.4h6.8v1.2H383z M378.4,117.9
			c0.8,1.1,1.5,2.5,1.8,3.5l-1.1,0.4c-0.3-1-1-2.4-1.8-3.5L378.4,117.9z"/>
		<path class="st4" d="M410.4,113.5c-0.7,1.8-1.5,3.9-2.3,5.5h4.3v1.3H398v-1.3h8.8c0.8-1.7,1.8-4.2,2.3-5.9L410.4,113.5z
			 M411.8,112.8h-12.9v-1.3h6.1c-0.3-1-0.8-2.2-1.3-3.2l1.2-0.3c0.6,1.1,1.2,2.5,1.6,3.5h5.4V112.8z M399.8,123.2h11.2v9.7h-1.3
			v-1.1h-8.6v1.4h-1.3V123.2z M402.6,118.7c-0.3-1.4-1.1-3.5-1.9-5.2l1.2-0.3c0.9,1.6,1.7,3.7,2,5.1L402.6,118.7z M401.1,124.5v6.1
			h8.6v-6.1H401.1z M422.6,110.2c-1,2.5-2.4,5.7-3.6,8.4c2.7,2.7,3.4,4.9,3.4,6.9c0,1.4-0.3,2.7-1.2,3.3c-0.4,0.3-1,0.5-1.7,0.5
			c-0.7,0.1-1.7,0.1-2.5,0c-0.1-0.4-0.2-0.9-0.4-1.3c1,0.1,1.9,0.1,2.5,0.1c0.5-0.1,0.9-0.1,1.2-0.3c0.6-0.4,0.8-1.4,0.8-2.4
			c0-1.9-0.8-3.9-3.5-6.6c1.3-2.6,2.5-5.6,3.3-7.8h-5.3v22.5h-1.3v-23.8h7.2l0.2-0.1L422.6,110.2z"/>
		<path class="st4" d="M438.4,125.6h-2.9v5.8h-1.6v-5.8h-9v-1l9-13.6h1.6v13.2h2.9V125.6z M433.9,124.2v-7.5c0-0.9,0.1-2.4,0.2-3.4
			H434c-0.5,0.9-1,1.9-1.6,2.8l-5.5,8.1H433.9z"/>
		<path class="st4" d="M444.4,125.9c-0.7,2-1.8,4.3-2.7,5.7c-0.2-0.2-0.8-0.5-1.1-0.6c1-1.5,2-3.5,2.6-5.4L444.4,125.9z M447.5,124
			v9.5h-1.2V124h-5.5v-1.2h1.4v-13.7h9.3v13.7h1.5v1.2H447.5z M443.4,110.2v2.4h6.8v-2.4H443.4z M450.2,113.7h-6.8v2.3h6.8V113.7z
			 M443.4,117.1v2.2h6.8v-2.2H443.4z M443.4,122.8h6.8v-2.4h-6.8V122.8z M450.1,125.4c0.9,1.5,1.9,3.4,2.4,4.6l-1.1,0.5
			c-0.4-1.3-1.4-3.2-2.3-4.6L450.1,125.4z M456.6,125.1c-0.7,2.2-1.7,4.9-3,6.7c-0.2-0.1-0.7-0.4-1-0.5c1.2-1.8,2.2-4.5,2.8-6.5
			L456.6,125.1z M462.6,108.9c-2.2,1.7-5.8,3.2-9,4.3c-0.1-0.3-0.3-0.7-0.5-1c3.1-1.1,6.7-2.6,8.5-4.3L462.6,108.9z M459.9,123.3
			v8.8c0,0.7-0.1,1-0.6,1.1c-0.5,0.2-1.3,0.2-2.5,0.2c-0.1-0.3-0.2-0.7-0.4-1h2c0.3,0,0.3-0.1,0.3-0.3v-8.7
			c-3.8,0.3-4.4,0.4-4.8,0.6c-0.1-0.3-0.3-0.9-0.4-1.3c0.6-0.1,1.4-0.6,2.5-1.5c0.8-0.6,2.7-2.2,4.6-4.2c-5.3,0.5-6,0.6-6.5,0.8
			c-0.1-0.3-0.2-0.9-0.4-1.2c0.4-0.1,1-0.3,1.6-0.7c0.7-0.4,3-2.2,4.6-4l1.1,0.6c-1.5,1.5-3.1,2.8-4.6,3.8l5.2-0.4
			c0.6-0.7,1.3-1.5,1.9-2.2l1.1,0.7c-2.7,3.1-5.7,5.9-8.6,8.1l7.5-0.5c-0.6-1.1-1.2-2.2-1.9-3.2l1-0.4c1.3,1.8,2.6,4.2,3.1,5.7
			l-1.1,0.6c-0.1-0.5-0.4-1-0.6-1.7L459.9,123.3z M462.6,124.5c1.1,2.1,2.5,4.8,3.2,6.3l-1.1,0.5c-0.6-1.6-2-4.4-3.1-6.4
			L462.6,124.5z"/>
		<path class="st4" d="M482,113.7v4.2h9.1v10.1c0,1-0.2,1.4-1,1.7c-0.9,0.3-2.4,0.3-4.9,0.3c-0.1-0.4-0.3-0.9-0.5-1.3
			c2.2,0.1,3.9,0.1,4.4,0.1c0.5-0.1,0.6-0.2,0.6-0.6v-8.8H482v14.3h-1.4v-14.3h-7.4V130h-1.3v-12.1h8.7v-4.2H469v-1.3h12.4
			c-0.4-1.1-1.3-2.8-2.1-4l1.3-0.4c0.8,1.3,1.8,3.1,2.2,4.1l-0.9,0.3h12v1.3H482z"/>
		<path class="st4" d="M503.8,121.7c-0.8,2.5-1.8,5.4-2.9,7.4c0.6,0.3,1.3,0.9,2.4,1.6c2,1.2,4.4,1.4,7.8,1.4c3.8,0,8-0.2,11.1-0.5
			c-0.2,0.4-0.4,1-0.4,1.4c-1.9,0.1-7.4,0.3-10.7,0.3c-3.6,0-6.1-0.3-8.2-1.6c-1.1-0.7-2.1-1.7-2.8-1.7c-0.6,0-1.6,1.6-2.5,3.5
			l-1-1.1c1.2-1.8,2.2-3.2,3.2-3.6c1-1.7,1.9-4.1,2.5-6.2h-4c0.8-1.7,1.9-4.2,2.8-6.4h-4.2V115h6c-0.8,2-1.8,4.5-2.7,6.4h2.9
			l0.2-0.1L503.8,121.7z M500.2,113.4c-0.3-1.2-0.9-3-1.4-4.4l1.2-0.3c0.5,1.4,1.1,3.2,1.4,4.4L500.2,113.4z M508.6,117.9
			c-0.2,3.5-0.8,7.7-3.1,10.8c-0.2-0.3-0.8-0.7-1.1-0.8c2.6-3.6,2.9-8.5,2.9-12v-6c4.3-0.3,9.7-0.9,12.5-1.7l1.1,1
			c-3.1,0.9-8,1.5-12.2,1.8v4.9v0.8h13.2v1.3h-5.5v12.2h-1.3v-12.2H508.6z"/>
		<path class="st4" d="M535.7,113.7c-0.9-1.1-2.1-1.6-3.3-1.6c-3.1,0-5.7,2.4-5.8,9.5c1.3-1.7,3.1-2.7,4.9-2.7
			c3.5,0,5.5,2.2,5.5,6.4c0,3.8-2.5,6.5-5.5,6.5c-3.9,0-6.6-3.5-6.6-10c0-8.2,3.5-11.1,7.3-11.1c1.9,0,3.3,0.8,4.3,2L535.7,113.7z
			 M535.5,125.3c0-3-1.2-5.1-4.1-5.1c-1.3,0-3.1,0.8-4.7,2.9c0.3,4.5,1.8,7.3,5,7.3C533.8,130.4,535.5,128.2,535.5,125.3z"/>
		<path class="st4" d="M564.9,126.8h-10.5v6.7h-1.3v-6.7h-13.2v-1.3h4.7v-7.6h8.5V113h-7.3c-1.3,2.3-2.9,4.3-4.5,5.8
			c-0.3-0.2-0.8-0.6-1.2-0.8c2.8-2.4,5.2-6,6.6-9.9l1.4,0.3c-0.4,1.1-1,2.3-1.5,3.3h17.2v1.3h-9.3v4.8h8.7v1.3h-8.7v6.4h10.5V126.8z
			 M553.1,125.5v-6.4h-7.1v6.4H553.1z"/>
		<path class="st4" d="M588.4,114.5c-1.8,4.6-4.1,8.3-7.1,11.3c3.2,2.9,7.2,5,11.8,6.2c-0.3,0.3-0.7,0.9-1,1.2
			c-4.7-1.3-8.6-3.5-11.8-6.5c-3.2,2.9-7.2,5-11.9,6.6c-0.2-0.4-0.6-1-0.9-1.3c4.7-1.5,8.7-3.5,11.8-6.3c-3.1-3.1-5.5-6.9-7.1-11.3
			h-4.3v-1.3h25v1.3H588.4z M573.6,114.5c1.5,3.9,3.8,7.5,6.7,10.4c2.8-2.7,5-6.2,6.5-10.4H573.6z M580.7,112.8
			c-0.4-1.1-1.4-3-2.3-4.4l1.3-0.4c0.9,1.3,2,3.2,2.4,4.3L580.7,112.8z"/>
		<path class="st4" d="M614,108.5c-0.1,0.3-0.2,0.5-0.3,0.8c1.5,3.4,4.3,6.9,7,8.5c-0.3,0.3-0.8,0.8-1,1.1c-2.4-1.6-5-4.8-6.6-8.1
			c-1.5,3.3-3.7,6.2-6.5,8.3c-0.2-0.3-0.6-0.6-1-0.9v4.4h-3.8v6.2l3.1-0.5c-0.4-1.3-0.9-2.6-1.3-3.8l1.1-0.3
			c0.8,2.1,1.7,4.8,2.1,6.6l-1.1,0.4c-0.1-0.5-0.3-1.1-0.4-1.7c-3.4,0.6-6.8,1.2-9.4,1.6l-0.2-1.3c1.4-0.2,3.1-0.5,5-0.8v-6.4H598
			v1.6h-1.1v-11.2h3.7v-5h1.2v5h3.8v5.1c3.4-2.4,5.9-6.2,7-10.1L614,108.5z M598,121.6h2.6v-7.2H598V121.6z M604.5,114.4h-2.7v7.2
			h2.7V114.4z M607.8,122.3h10.7v11.2h-1.3v-1.5h-8.1v1.6h-1.3V122.3z M617.4,117.3v1.2h-8.5v-1.2H617.4z M609.1,123.5v7.2h8.1v-7.2
			H609.1z"/>
		<path class="st4" d="M627.4,118.9v5.2c0,3-0.4,6.9-2.9,9.6c-0.2-0.3-0.7-0.7-1-0.9c2.3-2.5,2.6-5.9,2.6-8.7v-6.4h3.3
			c-0.2-0.3-0.5-0.7-0.7-0.9c2.3-0.5,5-1.2,7.5-1.9c-2.3-0.7-4.6-1.4-6.8-1.9l1-0.8c2.3,0.6,5,1.4,7.6,2.2c2-0.7,3.8-1.5,5.2-2.2
			h-17v-1.2h10.8c-0.5-0.8-1.2-1.7-1.8-2.4l1-0.6c0.9,0.9,1.8,2.1,2.2,3h9.3v1.2h-4.4l1,0.6c-1.3,0.7-3,1.5-4.7,2.1
			c2.3,0.8,4.3,1.5,5.9,2l-0.8,0.8h4v1.2H627.4z M649,131.2v1.2h-21v-1.2h9.6v-3.6h-6.9v-1.2h6.9v-3.1h-6.6
			c-0.8,1.3-1.6,2.4-2.5,3.4c-0.1-0.2-0.6-0.8-0.9-1c1.6-1.6,3-3.9,3.9-6.2l1.2,0.3c-0.3,0.8-0.7,1.6-1,2.4h5.9v-2.8h1.3v2.8h8v1.2
			h-8v3.1h7.4v1.2H639v3.6H649z M644.4,117.7c-1.7-0.7-4-1.5-6.5-2.3c-2.7,0.9-5.6,1.7-8.2,2.3H644.4z"/>
		<path class="st4" d="M677,131.6v1.1h-25.2v-1.1h11.9v-2H654v-1.1h9.6v-1.9h-8.7v-6.9h19.3v6.9H665v1.9h9.9v1.1H665v2H677z
			 M676.8,118.2H652v-1.1h24.8V118.2z M673.3,115.7h-17.9V109h17.9V115.7z M656.2,122.7h7.4v-1.9h-7.4V122.7z M663.7,125.6v-2h-7.4
			v2H663.7z M671.9,110h-15.2v1.9h15.2V110z M671.9,112.8h-15.2v1.9h15.2V112.8z M672.9,120.8H665v1.9h7.9V120.8z M672.9,123.7H665
			v2h7.9V123.7z"/>
		<path class="st4" d="M700.4,126.1c-1.5,1.7-3.6,3-5.9,4.1c3.3,1.1,7.1,1.8,10.7,2.2c-0.3,0.3-0.6,0.8-0.7,1.2
			c-3.9-0.5-8-1.4-11.6-2.7c-3.8,1.4-8.2,2.2-12.6,2.8c-0.1-0.3-0.5-1-0.7-1.3c4.1-0.4,8.1-1.1,11.6-2.2c-2.2-0.9-4.1-2-5.6-3.2
			c-1.4,1.1-3,2.1-4.5,2.8c-0.2-0.3-0.6-0.8-0.9-1.1c2.9-1.2,5.9-3.2,7.4-5.6l1.2,0.4c-0.3,0.5-0.7,1-1.1,1.5h16.6v1.1H700.4z
			 M681.9,119.6c-0.3,1.6-0.7,3.4-1.1,4.6c-0.2-0.1-0.6-0.4-0.9-0.6c0.5-1.2,0.8-2.8,1-4.3L681.9,119.6z M687,118.8
			c-0.1-0.3-0.2-0.8-0.3-1.3c-5.1,0.8-5.8,0.9-6.2,1.1c-0.1-0.2-0.2-0.8-0.4-1.2c0.4,0,1-0.5,1.7-1.1c0.4-0.3,1.2-1.2,2.2-2.4
			c-2.5,0.2-3.1,0.3-3.4,0.4c-0.1-0.3-0.3-0.9-0.4-1.2c0.3-0.1,0.7-0.4,1.1-0.9c0.4-0.5,1.8-2.4,2.7-4.3l1.1,0.4
			c-0.9,1.7-2,3.3-3,4.5l2.7-0.2c0.6-0.7,1.1-1.6,1.7-2.4l1.1,0.5c-1.6,2.3-3.4,4.5-5.2,6.1l4-0.5c-0.3-0.7-0.5-1.4-0.8-2l1-0.2
			c0.6,1.3,1.3,3,1.5,4.1L687,118.8z M683.7,123.5c0-1.1-0.3-2.7-0.6-3.9l1-0.2c0.3,1.2,0.6,2.8,0.6,3.9L683.7,123.5z M686.7,119.2
			c0.4,1.1,0.8,2.5,1,3.5l-1,0.3c-0.2-1-0.6-2.4-1-3.5L686.7,119.2z M686.4,126.2c1.6,1.3,3.8,2.5,6.4,3.4c2.4-0.9,4.4-2,5.9-3.5
			L686.4,126.2L686.4,126.2z M696.7,111.5h-8.6v-1h3.9c-0.3-0.7-0.7-1.5-1.1-2.1l1-0.3c0.5,0.7,1,1.7,1.3,2.4h3.4V111.5z M696.1,114
			h-7.5v-1h7.5V114z M696.1,116.5h-7.4v-1h7.4V116.5z M688.8,123.1v-5h7.1v5H688.8z M689.8,122.1h5v-3h-5V122.1z M703.9,118.8
			c-0.1-0.4-0.2-0.9-0.4-1.5c-5.2,0.8-5.8,1-6.2,1.1c-0.1-0.3-0.3-0.9-0.4-1.2c0.5,0,1-0.5,1.7-1.1c0.4-0.3,1.2-1.2,2.1-2.3
			c-2.5,0.3-3.1,0.3-3.4,0.4c-0.1-0.3-0.3-0.9-0.4-1.1c0.4-0.1,0.7-0.4,1.1-0.9c0.4-0.5,1.8-2.4,2.7-4.3l1.1,0.5
			c-0.9,1.7-1.9,3.3-3,4.5l2.7-0.2c0.6-0.8,1.2-1.6,1.7-2.4l1.1,0.5c-1.6,2.2-3.4,4.4-5.1,6l4-0.5c-0.2-0.6-0.5-1.3-0.8-1.8l1-0.2
			c0.7,1.3,1.3,3.1,1.5,4.1L703.9,118.8z M698.7,119.5c-0.3,1.5-0.6,3.2-1,4.4c-0.2-0.1-0.7-0.4-1-0.6c0.4-1.2,0.7-2.6,0.9-4
			L698.7,119.5z M700.6,123.4c0-1.1-0.2-2.7-0.5-3.9l1-0.2c0.3,1.2,0.5,2.9,0.6,3.9L700.6,123.4z M703.6,118.9c0.5,1.3,1,3,1.2,4.1
			l-1,0.3c-0.2-1.1-0.7-2.8-1.1-4.1L703.6,118.9z"/>
		<path class="st4" d="M716.8,108.6c-0.8,1.8-1.8,3.6-2.9,5.3v19.5h-1.3v-17.6c-1.4,1.9-2.9,3.7-4.5,5.1c-0.2-0.3-0.6-1-0.8-1.2
			c3.2-2.7,6.4-7.1,8.3-11.5L716.8,108.6z M729.2,131.1c1.6,0,1.9-1.3,2.1-6.2c0.4,0.3,0.9,0.6,1.3,0.6c-0.3,5.1-0.7,6.8-3.4,6.8
			h-5.7c-2.4,0-3.2-0.6-3.2-3.1v-20.7h1.3v7.9h10.1v1.3h-10.1v11.5c0,1.4,0.4,1.8,1.9,1.8H729.2z"/>
	</g>
	<g>
		<rect x="849.9" y="70.2" class="st2" width="217.1" height="51.5"/>
		<path d="M857.8,77.7h-6.7v-1h6.7V77.7z M859.5,90.2c-1.9,1.1-4.9,2.1-7.3,2.8c-0.2-0.2-0.6-0.7-0.9-0.9c2.4-0.6,5.3-1.4,7.1-2.4
			L859.5,90.2z M857.2,73.9h-5.5v-1h5.5V73.9z M854.3,79.7h15.3v9.6h-15.3V79.7z M855.5,82.6h13v-2h-13V82.6z M855.5,85.5h13v-2h-13
			V85.5z M855.5,88.5h13v-2.1h-13V88.5z M861.7,74.1c-0.6,1-1.2,1.9-1.9,2.6c-0.2-0.2-0.6-0.5-0.9-0.6c1.2-1.2,2.2-2.9,2.8-4.8
			l1.1,0.2c-0.2,0.5-0.4,1-0.6,1.5h8.9l0.2,0l0.8,0.3c-0.6,1.2-1.3,2.5-1.9,3.3l-0.9-0.3c0.4-0.6,0.9-1.4,1.3-2.2h-4.6v0.2
			c0,0.4,0,0.7-0.1,1.1c1.3,1.5,4,2.7,7.1,3c-0.2,0.2-0.5,0.7-0.7,0.9c-2.9-0.4-5.3-1.5-6.7-3.1c-0.7,1.3-2.5,2.5-6.9,3.3
			c-0.1-0.3-0.4-0.7-0.6-0.9c6.4-1,7-3,7-4.4v-0.2H861.7z M865.2,89.8c2.7,0.7,5.5,1.7,7.2,2.5l-1,0.7c-1.6-0.7-4.3-1.7-7-2.5
			L865.2,89.8z"/>
		<path d="M878.2,82.5c-0.5,2.6-1.5,6-2.6,7.7c-0.1-0.4-0.5-0.8-0.7-1.2c1-1.5,2-4.4,2.4-6.8L878.2,82.5z M880.2,80.5v12.6h-1.1
			V80.5h-4v-1.1h4v-8h1.1v8h4.2v1.1H880.2z M876.9,78.3c-0.1-1.4-0.8-3.6-1.4-5.2l0.9-0.2c0.7,1.6,1.3,3.8,1.5,5.2L876.9,78.3z
			 M881.5,82.2c0.5,0.7,2.1,4.2,2.5,5l-0.9,0.9c-0.4-1.2-1.8-4.5-2.3-5.4L881.5,82.2z M884.2,73.2c-0.6,1.7-1.4,4-2,5.3l-0.8-0.3
			c0.6-1.4,1.4-3.7,1.8-5.3L884.2,73.2z M893.6,86.2v6.9h-1.1v-6.7l-7.9,1.5l-0.2-1.1l8.2-1.5V71.4h1.1v13.7l3-0.5l0.2,1L893.6,86.2
			z M889.1,82.9c-0.9-0.9-2.6-2.1-4-2.8l0.6-0.8c1.5,0.7,3.2,1.8,4.1,2.7L889.1,82.9z M890.2,77.2c-0.8-0.9-2.4-2.2-3.8-3l0.6-0.8
			c1.4,0.8,3,2,3.8,3L890.2,77.2z"/>
		<path d="M910.4,82c2.2,3.9,6.3,7.4,10.4,9c-0.3,0.3-0.7,0.7-0.9,1c-3.5-1.5-7.2-4.6-9.6-8v9.1h-1.2v-9.1c-2.4,3.3-6.1,6.3-9.5,7.9
			c-0.2-0.3-0.6-0.7-0.8-0.9c3.8-1.6,8-5.2,10.3-8.9v-6h-9.6v-1.1h9.6v-3.5h1.2v3.5h9.8V76h-9.8V82z M905.2,77c-0.2,1.1-0.6,2.1-1,3
			c1.1,1,2.3,2.2,3,3l-0.8,0.8c-0.6-0.7-1.6-1.8-2.6-2.7c-0.9,1.7-1.9,3-3.2,4.1c-0.2-0.2-0.7-0.6-0.9-0.7c2.2-1.7,3.7-4.3,4.5-7.5
			L905.2,77z M916.6,77c-0.2,1.1-0.5,2.1-0.9,3c1.6,1.3,3.6,3,4.6,4l-0.8,0.8c-0.9-1-2.6-2.6-4.2-3.9c-0.6,1.3-1.4,2.4-2.4,3.4
			c-0.2-0.2-0.6-0.5-0.9-0.7c1.8-1.5,3-3.9,3.5-6.8L916.6,77z"/>
		<path d="M927.1,81.5c-0.9-0.7-2.7-1.9-4.1-2.6l0.7-0.8c1.3,0.7,3.2,1.8,4.1,2.5L927.1,81.5z M928.3,85c-1.1,2.5-2.5,5.6-3.7,7.8
			l-1-0.7c1.1-1.8,2.7-5.1,3.8-7.8L928.3,85z M928.2,75.3c-0.9-0.8-2.7-2-4-2.8l0.7-0.8c1.3,0.8,3.1,2,4.1,2.7L928.2,75.3z
			 M931.2,79c0,4.1-0.4,9.9-3.2,13.9c-0.2-0.2-0.7-0.5-0.9-0.6c2.7-3.9,3-9.4,3-13.3v-6.6h14.4v1.1h-13.3V79z M935.1,86.6
			c-0.8,1.8-2.1,3.7-3.2,4.9c-0.2-0.1-0.7-0.5-1-0.6c1.2-1.2,2.4-2.9,3.1-4.6L935.1,86.6z M938.7,84.8v6.9c0,0.7-0.1,1-0.7,1.2
			c-0.6,0.2-1.5,0.2-3.2,0.2c-0.1-0.3-0.2-0.7-0.4-1c1.3,0,2.4,0,2.7,0c0.3,0,0.4-0.1,0.4-0.4v-6.9h-4.6v-8h3.9
			c0.3-0.8,0.6-1.9,0.7-2.6l1.2,0.3c-0.3,0.8-0.6,1.6-0.9,2.3h5.6v8H938.7z M934,80.3h8.4v-2.5H934V80.3z M934,83.8h8.4v-2.6H934
			V83.8z M941.8,86.2c1.1,1.5,2.4,3.5,3,4.6l-1.1,0.5c-0.6-1.2-1.9-3.2-2.9-4.7L941.8,86.2z"/>
		<path d="M956.3,76.4c0-1,0.7-1.5,1.5-1.5s1.5,0.6,1.5,1.5c0,1-0.7,1.5-1.5,1.5S956.3,77.3,956.3,76.4z M956.3,88.3
			c0-1,0.7-1.5,1.5-1.5s1.5,0.6,1.5,1.5c0,1-0.7,1.5-1.5,1.5S956.3,89.2,956.3,88.3z"/>
		<path d="M978,87.2v4.3l5.2-1.2c0,0.3,0,0.7,0,0.9c-5.9,1.5-6.5,1.6-6.9,1.9c0-0.3-0.3-0.8-0.5-1c0.4-0.2,1.1-0.6,1.1-1.5v-3.5
			h-2.7c-0.3,2-0.9,4.2-2.3,6c-0.2-0.2-0.7-0.5-1-0.6c2-2.5,2.3-5.9,2.3-8.4v-3H992v1h-17.6v1.6h16.3v0.9h-16.3c0,0.5,0,1-0.1,1.6
			h18.2v1h-10.1c0.6,1,1.5,1.8,2.6,2.5c1.6-0.6,3.7-1.6,4.9-2.3l0.8,0.7c-1.4,0.7-3.3,1.5-4.9,2c1.8,1,4.2,1.6,6.8,1.9
			c-0.3,0.3-0.6,0.7-0.7,1.1c-5.1-0.6-8.9-2.7-10.7-5.9H978z M990.4,79.7h-16.8v-6.6h5.1v-1.8h1.1v1.8h4.2v-1.8h1.1v1.8h5.3V79.7z
			 M974.6,76h4v-1.9h-4V76z M974.6,78.8h4v-2h-4V78.8z M979.7,74.1V76h4.2v-1.9H979.7z M979.7,76.8v2h4.2v-2H979.7z M989.3,74.1
			h-4.2V76h4.2V74.1z M989.3,76.8h-4.2v2h4.2V76.8z"/>
		<path d="M1005.1,77.4c-2.3,2.5-6.2,4.7-9.5,5.7c-0.2-0.3-0.5-0.7-0.7-0.9c3-0.9,6.6-2.7,8.8-4.8h-8.3v-1h9.9v-2.9
			c-2.7,0.2-5.5,0.4-8,0.5c0-0.3-0.1-0.7-0.3-0.9c5.5-0.2,12.4-0.7,15.9-1.6l0.9,0.9c-2,0.4-4.6,0.8-7.4,1.1v3h10v1h-10v5.2h-1.1
			v-5.2H1005.1z M1013.1,83.1c-0.1,0.5-0.3,1-0.5,1.4h4.1v1h-4.5c-0.8,1.8-2.1,3.2-3.7,4.3c3.1,0.8,5.9,1.6,8,2.4l-1.1,0.8
			c-2.1-0.8-4.8-1.7-8.1-2.5c-2.6,1.4-6.1,2.2-10.7,2.5c-0.1-0.4-0.3-0.8-0.5-1.1c4-0.3,7.1-0.8,9.5-1.9c-2.1-0.5-4.4-1-6.7-1.5
			c0.8-0.9,1.8-2,2.6-3.1h-6.3v-1h7.1c0.6-0.9,1.3-1.9,1.7-2.8l1.2,0.3c-0.4,0.8-1,1.6-1.5,2.4h7.8c0.2-0.6,0.4-1.2,0.6-1.8
			L1013.1,83.1z M1002.8,85.5c-0.7,0.9-1.4,1.8-2.1,2.5c2.1,0.4,4.2,0.9,6.2,1.4c1.7-1,3-2.3,3.9-3.9H1002.8z M1007.8,77.6
			c3,1.3,7.1,3.2,9.1,4.5l-0.6,0.9c-2-1.3-6-3.3-9.1-4.7L1007.8,77.6z"/>
		<path d="M1030.9,71.7c-0.1,0.1-0.2,0.3-0.3,0.5c2.3,2.4,6.6,4.5,10.3,5.4c-0.3,0.2-0.6,0.6-0.7,0.9c-1.9-0.6-4.1-1.5-6.1-2.6v0.8
			h-8.3V76c-1.9,1.1-4,2-6,2.7c-0.1-0.2-0.5-0.7-0.7-0.9c4.3-1.2,8.6-3.4,10.9-6.4L1030.9,71.7z M1022,78.2h15.8V84H1022V78.2z
			 M1023,83.1h6.3v-3.9h-6.3V83.1z M1023.4,85.3h13.2V93h-1.2v-0.8h-10.9v0.9h-1.1V85.3z M1024.6,86.2v2h10.9v-2H1024.6z
			 M1035.4,91.2v-2h-10.9v2H1035.4z M1025.7,79.6c0.7,0.9,1.4,2,1.7,2.8l-0.9,0.4c-0.2-0.8-1-2-1.7-2.9L1025.7,79.6z M1033.8,75.8
			c-1.5-0.9-2.9-1.8-3.9-2.9c-1.1,1.1-2.4,2.1-3.8,2.9H1033.8z M1036.7,79.1h-6.3v3.9h6.3V79.1z M1032.3,82.5c0.5-0.8,1.2-2.1,1.6-3
			l1,0.4c-0.6,1-1.2,2.2-1.8,2.9L1032.3,82.5z"/>
		<path d="M871,115.4c-1.4,1-3.2,1.9-4.8,2.7c1.8,1.2,3.9,2.1,6.4,2.5c-0.2,0.2-0.5,0.6-0.7,1c-4.8-1-8.3-3.4-10.1-7.2
			c-1.2,1-2.9,1.9-4.7,2.7v3.1l6.2-1.3c0,0.3,0,0.7,0,0.9c-6.7,1.6-7.3,1.8-7.8,2.1c-0.1-0.3-0.3-0.8-0.5-1c0.4-0.2,1-0.6,1-1.6
			v-1.8c-1.5,0.6-3,1.1-4.4,1.4c-0.2-0.3-0.5-0.7-0.7-0.9c3.2-0.7,7-2.1,9.5-3.7h-9v-1h10.4c-0.2-0.5-0.6-1.2-0.9-1.7l1.1-0.3
			c0.4,0.6,0.8,1.4,1.1,1.9h9.4v1H863c0.6,1.2,1.5,2.3,2.5,3.1c1.6-0.7,3.5-1.8,4.6-2.6L871,115.4z M856.9,105.6h-5.7v-0.9h5.7v-1.8
			h-3.2c-0.3,0.6-0.6,1.2-1,1.6c-0.2-0.2-0.7-0.4-0.9-0.5c0.9-1,1.5-2.4,1.9-3.8l1,0.2c-0.2,0.5-0.4,1-0.6,1.5h2.8v-1.8h1.1v1.8h4.4
			v0.9h-4.4v1.8h5.4v0.9h-5.4v1.5h4.6v3.1c0,0.5-0.1,0.8-0.5,1c-0.4,0.2-1.1,0.2-2.2,0.2c0-0.3-0.2-0.6-0.3-0.9c0.9,0,1.5,0,1.8,0
			c0.2,0,0.3-0.1,0.3-0.3V108h-3.6v4.1h-1.1V108h-3.3v3.4h-1v-4.3h4.3V105.6z M866.5,109.2h-1.1v-7.8h1.1V109.2z M871,110.5
			c0,0.8-0.2,1.1-0.7,1.2c-0.6,0.2-1.6,0.2-3.3,0.2c-0.1-0.3-0.2-0.7-0.4-1c1.5,0,2.6,0,3,0c0.4,0,0.5-0.1,0.5-0.4v-10.1h1.1V110.5z
			"/>
		<path d="M895.3,112.5c-1.4,1.3-3.2,2.7-4.8,3.7c1.7,1.7,3.9,3,6.4,3.7c-0.3,0.3-0.6,0.7-0.8,1c-4.9-1.6-8.5-5.3-10.3-10.2h-0.2
			c-1.1,1.2-2.5,2.3-4,3.3v6l6.2-1.9c0,0.3,0.1,0.7,0.2,1c-6.6,2.2-7.3,2.4-7.8,2.8c-0.1-0.3-0.4-0.8-0.5-1.1
			c0.3-0.1,0.8-0.5,0.8-1.4v-4.6c-1.6,0.9-3.2,1.7-4.7,2.2c-0.2-0.3-0.5-0.7-0.8-1c3.1-1,6.8-3.1,9.1-5.3h-8.5v-1.1h9.7V107h-7.5v-1
			h7.5v-2.5h-8.8v-1.1h8.8v-2.4h1.1v2.4h9v1.1h-9v2.5h7.9v1h-7.9v2.6h9.7v1.1h-9.2c0.7,1.8,1.7,3.4,2.9,4.8c1.5-1.1,3.4-2.5,4.5-3.6
			L895.3,112.5z"/>
		<path d="M908.3,105.2c0-1,0.7-1.5,1.5-1.5s1.5,0.6,1.5,1.5c0,1-0.7,1.5-1.5,1.5S908.3,106.1,908.3,105.2z M908.3,117.1
			c0-1,0.7-1.5,1.5-1.5s1.5,0.6,1.5,1.5c0,1-0.7,1.5-1.5,1.5S908.3,118,908.3,117.1z"/>
		<path d="M930,116v4.3l5.2-1.2c0,0.3,0,0.7,0,0.9c-5.9,1.5-6.5,1.6-6.9,1.9c0-0.3-0.3-0.8-0.5-1c0.4-0.2,1.1-0.6,1.1-1.5V116h-2.7
			c-0.3,2-0.9,4.2-2.3,6c-0.2-0.2-0.7-0.5-1-0.6c2-2.5,2.3-5.9,2.3-8.4v-3H944v1h-17.6v1.6h16.3v0.9h-16.3c0,0.5,0,1-0.1,1.6h18.2v1
			h-10.1c0.6,1,1.5,1.8,2.6,2.5c1.6-0.6,3.7-1.6,4.9-2.3l0.8,0.7c-1.4,0.7-3.3,1.5-4.9,2c1.8,1,4.2,1.6,6.8,1.9
			c-0.3,0.3-0.6,0.7-0.7,1.1c-5.1-0.6-8.9-2.7-10.7-5.9H930z M942.4,108.5h-16.8v-6.6h5.1v-1.8h1.1v1.8h4.2v-1.8h1.1v1.8h5.3V108.5z
			 M926.6,104.8h4v-1.9h-4V104.8z M926.6,107.6h4v-2h-4V107.6z M931.7,102.9v1.9h4.2v-1.9H931.7z M931.7,105.6v2h4.2v-2H931.7z
			 M941.3,102.9h-4.2v1.9h4.2V102.9z M941.3,105.6h-4.2v2h4.2V105.6z"/>
		<path d="M953.7,100.6c-0.7,1.8-1.6,3.6-2.6,5.3v16H950v-14.3c-0.9,1.4-1.9,2.6-2.9,3.6c-0.1-0.2-0.5-0.8-0.7-1
			c2.5-2.4,4.8-6.1,6.2-9.9L953.7,100.6z M965.2,115.4h3.6v1h-3.6v4c0,0.7-0.2,1.1-0.8,1.3c-0.6,0.2-1.8,0.2-3.7,0.2
			c-0.1-0.3-0.3-0.7-0.4-1.1c1.7,0,2.9,0,3.3,0c0.4,0,0.5-0.1,0.5-0.4v-4h-11.4v-1H964v-1.9c-4,0.1-7.9,0.3-10.8,0.3l-0.1-1
			c1.9,0,4.4,0,7.1-0.1V111h-5.8v-6.2h5.8v-1.6h-6.8v-1h6.8v-1.8h1.1v1.8h7.1v1h-7.1v1.6h6v6.2h-2.3c1.4,0.9,3,2.2,3.8,3.1l-0.9,0.6
			c-0.3-0.4-0.7-0.8-1.2-1.2v0l-1.6,0V115.4z M955.5,107.4h4.8v-1.8h-4.8V107.4z M960.3,110.1v-1.8h-4.8v1.8H960.3z M956.3,116.8
			c1.2,0.9,2.5,2.2,3.2,3.1l-0.9,0.7c-0.6-0.9-1.9-2.3-3.1-3.2L956.3,116.8z M961.4,105.6v1.8h4.9v-1.8H961.4z M966.3,108.3h-4.9
			v1.8h4.9V108.3z M961.4,112.7c1.4,0,2.9-0.1,4.3-0.1c-0.6-0.5-1.2-0.9-1.8-1.3l0.5-0.3h-3V112.7z"/>
		<path d="M977.8,106.5c0,2.8-0.2,6.2-1.6,9.4c1.1,1.1,2.2,2.1,2.8,3l-0.7,0.9c-0.6-0.8-1.5-1.8-2.6-2.9c-0.9,1.7-2.2,3.4-4.1,4.9
			c-0.2-0.2-0.6-0.6-0.8-0.7c1.9-1.5,3.2-3.2,4.1-4.9c-1.1-1-2.3-2.1-3.5-2.9c0.5-1.7,1.1-4.1,1.6-6.6l-1.9,0.1l-0.1-1.1
			c0.7,0,1.4,0,2.3-0.1c0.3-1.9,0.6-3.7,0.8-5.4l1,0c-0.2,1.6-0.5,3.4-0.8,5.3l2.5-0.1v-1.8h1v1.8l1.4-0.1v1l-1.4,0.1V106.5z
			 M974,106.6c-0.4,2.4-1,4.6-1.4,6.4c0.9,0.7,1.8,1.5,2.7,2.3c1.3-3,1.4-6.1,1.4-8.7v-0.1L974,106.6z M983.8,116.1
			c-0.9,2.1-2.5,4.3-4.2,5.4c-0.2-0.3-0.5-0.6-0.8-0.8c1.6-0.9,3.2-2.9,4.1-4.8L983.8,116.1z M986.3,114.9v7h-1.1v-7h-6v-1h6v-2.5
			h-3.8v-7.4H979v-1.1h2.4v-2.7h1.1v2.7h6.6v-2.7h1.1v2.7h2.3v1.1h-2.3v7.4h-3.8v2.5h6v1H986.3z M982.5,103.9v2.7h6.6v-2.7H982.5z
			 M982.5,110.3h6.6v-2.7h-6.6V110.3z M988.6,115.8c1.4,1.6,3.1,3.8,3.9,5.1l-0.9,0.5c-0.8-1.3-2.5-3.6-3.9-5.2L988.6,115.8z"/>
	</g>
	<line class="st5" x1="169.7" y1="759.6" x2="169.7" y2="742.5"/>
	<line class="st5" x1="319.6" y1="759.6" x2="319.6" y2="742.5"/>
	<line class="st5" x1="469.4" y1="759.6" x2="469.4" y2="742.5"/>
	<line class="st5" x1="619.3" y1="759.6" x2="619.3" y2="742.5"/>
	<line class="st5" x1="769.2" y1="759.6" x2="769.2" y2="742.5"/>
	<line class="st5" x1="919" y1="759.6" x2="919" y2="742.5"/>
	<g>
		<path d="M62.8,758.7c0-8.7,3-12.8,7.8-12.8c4.7,0,7.7,4.2,7.7,12.8c0,8.7-3,13-7.7,13C65.8,771.7,62.8,767.4,62.8,758.7z
			 M75.3,758.7c0-7.3-1.9-10.3-4.7-10.3c-2.9,0-4.8,3.1-4.8,10.3c0,7.3,1.9,10.5,4.8,10.5C73.4,769.2,75.3,766,75.3,758.7z"/>
	</g>
	<g>
		<path d="M64.1,631.1h5.5v-18.6h-4.4v-2c2.2-0.4,3.8-1,5.2-1.8h2.4v22.3h5v2.6H64.1V631.1z"/>
	</g>
	<g>
		<rect x="116.3" y="769.8" class="st2" width="106.9" height="65.5"/>
		<path d="M140.8,792.2c6.3-5.5,9.1-9.4,9.1-12.9c0-2.3-1.2-3.9-3.7-3.9c-1.6,0-3,1-4.1,2.3l-1.4-1.4c1.6-1.8,3.3-2.9,5.9-2.9
			c3.6,0,5.8,2.3,5.8,5.9c0,4-3.1,8-7.8,12.4c1-0.1,2.3-0.2,3.3-0.2h5.5v2.1h-12.5V792.2z"/>
		<path d="M156,783.7c0-6.9,2.4-10.3,6.2-10.3c3.8,0,6.2,3.4,6.2,10.3c0,6.9-2.4,10.4-6.2,10.4C158.4,794,156,790.6,156,783.7z
			 M166,783.7c0-5.8-1.5-8.3-3.8-8.3c-2.3,0-3.8,2.4-3.8,8.3c0,5.9,1.5,8.4,3.8,8.4C164.4,792.1,166,789.5,166,783.7z"/>
		<path d="M172.1,791.6h4.4v-14.9H173v-1.6c1.8-0.3,3-0.8,4.1-1.4h1.9v17.9h4v2.1h-10.9V791.6z"/>
		<path d="M187.2,791.6h4.4v-14.9h-3.5v-1.6c1.8-0.3,3-0.8,4.1-1.4h1.9v17.9h4v2.1h-10.9V791.6z"/>
	</g>
	<g>
		<rect x="266.1" y="769.8" class="st2" width="106.9" height="65.5"/>
		<path d="M310.2,771.7c-1.5,0.7-2.4,2.1-2.4,3.3c0.2-0.1,0.4-0.2,0.7-0.2c1,0,1.7,0.8,1.7,1.7c0,0.8-0.6,1.8-1.8,1.8
			c-1.2,0-2.1-1.1-2.1-2.6c0-2.4,1.7-4.3,3.4-5.1L310.2,771.7z"/>
		<path d="M313.7,791.6h4.4v-14.9h-3.5v-1.6c1.8-0.3,3-0.8,4.1-1.4h1.9v17.9h4v2.1h-10.9V791.6z"/>
		<path d="M327.6,792.2c6.3-5.5,9.1-9.4,9.1-12.9c0-2.3-1.2-3.9-3.7-3.9c-1.6,0-3,1-4.1,2.3l-1.4-1.4c1.6-1.8,3.3-2.9,5.9-2.9
			c3.6,0,5.8,2.3,5.8,5.9c0,4-3.1,8-7.8,12.4c1-0.1,2.3-0.2,3.3-0.2h5.5v2.1h-12.5V792.2z"/>
	</g>
	<g>
		<rect x="416" y="769.8" class="st2" width="106.9" height="65.5"/>
		<path d="M460.1,771.7c-1.5,0.7-2.4,2.1-2.4,3.3c0.2-0.1,0.4-0.2,0.7-0.2c1,0,1.7,0.8,1.7,1.7c0,0.8-0.6,1.8-1.8,1.8
			c-1.2,0-2.1-1.1-2.1-2.6c0-2.4,1.7-4.3,3.4-5.1L460.1,771.7z"/>
		<path d="M463.5,791.6h4.4v-14.9h-3.5v-1.6c1.8-0.3,3-0.8,4.1-1.4h1.9v17.9h4v2.1h-10.9V791.6z"/>
		<path d="M477,791.3l1.2-1.6c1.2,1.2,2.7,2.3,4.9,2.3c2.4,0,4-1.4,4-3.7c0-2.4-1.6-4-6.2-4v-1.9c4.1,0,5.5-1.7,5.5-3.8
			c0-1.9-1.3-3.2-3.4-3.2c-1.6,0.1-3,0.9-4.1,2l-1.3-1.6c1.5-1.4,3.3-2.4,5.6-2.4c3.3,0,5.8,1.8,5.8,5c0,2.4-1.4,4-3.6,4.8v0.1
			c2.4,0.5,4.2,2.3,4.2,5.1c0,3.6-2.9,5.7-6.4,5.7C480.3,794,478.3,792.7,477,791.3z"/>
	</g>
	<g>
		<rect x="565.8" y="769.8" class="st2" width="106.9" height="65.5"/>
		<path d="M610,771.7c-1.5,0.7-2.4,2.1-2.4,3.3c0.2-0.1,0.4-0.2,0.7-0.2c1,0,1.7,0.8,1.7,1.7c0,0.8-0.6,1.8-1.8,1.8
			c-1.2,0-2.1-1.1-2.1-2.6c0-2.4,1.7-4.3,3.4-5.1L610,771.7z"/>
		<path d="M613.4,791.6h4.4v-14.9h-3.5v-1.6c1.8-0.3,3-0.8,4.1-1.4h1.9v17.9h4v2.1h-10.9V791.6z"/>
		<path d="M640.3,788.2h-2.6v5.5h-2.4v-5.5h-8.7v-1.6l8.3-12.8h2.7v12.4h2.6V788.2z M635.3,786.2v-6.1c0-1,0.1-2.6,0.2-3.6h-0.1
			c-0.5,1-1,2-1.6,2.9l-4.5,6.8H635.3z"/>
	</g>
	<g>
		<rect x="713.9" y="769.8" class="st2" width="106.9" height="65.5"/>
		<path d="M758,771.7c-1.5,0.7-2.4,2.1-2.4,3.3c0.2-0.1,0.4-0.2,0.7-0.2c1,0,1.7,0.8,1.7,1.7c0,0.8-0.6,1.8-1.8,1.8
			c-1.2,0-2.1-1.1-2.1-2.6c0-2.4,1.7-4.3,3.4-5.1L758,771.7z"/>
		<path d="M761.5,791.6h4.4v-14.9h-3.5v-1.6c1.8-0.3,3-0.8,4.1-1.4h1.9v17.9h4v2.1h-10.9V791.6z"/>
		<path d="M774.9,791.4l1.2-1.6c1.1,1.1,2.6,2.2,4.9,2.2c2.3,0,4.2-1.8,4.2-4.7c0-2.9-1.6-4.5-4.1-4.5c-1.3,0-2.2,0.4-3.3,1.2
			l-1.3-0.8l0.6-9.3h9.7v2.1h-7.5l-0.5,5.8c0.9-0.5,1.8-0.8,3-0.8c3.3,0,6,2,6,6.3s-3.2,6.8-6.5,6.8
			C778.2,794,776.3,792.7,774.9,791.4z"/>
	</g>
	<g>
		<rect x="863.8" y="769.8" class="st2" width="106.9" height="65.5"/>
		<path d="M907.9,771.7c-1.5,0.7-2.4,2.1-2.4,3.3c0.2-0.1,0.4-0.2,0.7-0.2c1,0,1.7,0.8,1.7,1.7c0,0.8-0.6,1.8-1.8,1.8
			c-1.2,0-2.1-1.1-2.1-2.6c0-2.4,1.7-4.3,3.4-5.1L907.9,771.7z"/>
		<path d="M911.3,791.6h4.4v-14.9h-3.5v-1.6c1.8-0.3,3-0.8,4.1-1.4h1.9v17.9h4v2.1h-10.9V791.6z"/>
		<path d="M936.2,777c-0.8-1-2-1.5-3.2-1.5c-2.7,0-5,2.1-5.1,8.3c1.2-1.5,3-2.4,4.5-2.4c3.4,0,5.5,2.1,5.5,6.3
			c0,3.9-2.6,6.5-5.7,6.5c-3.8,0-6.7-3.3-6.7-9.9c0-7.8,3.5-10.8,7.4-10.8c2.1,0,3.6,0.9,4.6,2L936.2,777z M935.6,787.6
			c0-2.7-1.2-4.4-3.6-4.4c-1.2,0-2.8,0.7-4.1,2.6c0.3,4.1,1.8,6.4,4.3,6.4C934.1,792.1,935.6,790.3,935.6,787.6z"/>
	</g>
	<g>
		<path d="M62.6,494.1C70.4,487.3,74,482.3,74,478c0-2.9-1.5-4.9-4.6-4.9c-2,0-3.8,1.3-5.2,2.9l-1.8-1.8c2-2.2,4.2-3.7,7.3-3.7
			c4.4,0,7.2,2.9,7.2,7.4c0,5-3.9,10-9.7,15.6c1.3-0.1,2.8-0.2,4.1-0.2h6.9v2.7H62.6V494.1z"/>
	</g>
	<g>
		<path d="M62.1,357.9l1.6-2c1.5,1.5,3.4,2.9,6.2,2.9c3,0,5.1-1.8,5.1-4.6c0-3-2-5-7.7-5v-2.4c5.1,0,6.9-2.1,6.9-4.8
			c0-2.4-1.6-3.9-4.2-4c-2,0.1-3.8,1.1-5.2,2.5l-1.7-2c1.9-1.7,4.1-3,7-3c4.2,0,7.2,2.2,7.2,6.2c0,3-1.8,5-4.4,6v0.1
			c3,0.7,5.3,2.9,5.3,6.3c0,4.4-3.6,7.1-8,7.1C66.2,361.3,63.7,359.7,62.1,357.9z"/>
	</g>
	<g>
		<path d="M78.9,217.4h-3.3v6.9h-3v-6.9H61.8v-2l10.4-16h3.4v15.6h3.3V217.4z M72.6,214.9v-7.6c0-1.2,0.1-3.2,0.2-4.5h-0.1
			c-0.6,1.2-1.3,2.4-2,3.7l-5.7,8.5H72.6z"/>
	</g>
	<g>
		<path d="M62.1,87.4l1.5-2c1.4,1.4,3.2,2.8,6.1,2.8c2.9,0,5.3-2.2,5.3-5.9c0-3.6-2-5.7-5.2-5.7c-1.7,0-2.7,0.5-4.1,1.5L64,77
			l0.8-11.7h12.1V68h-9.4l-0.6,7.2c1.1-0.6,2.2-1,3.7-1c4.1,0,7.5,2.4,7.5,7.9c0,5.5-3.9,8.6-8.2,8.6C66.1,90.7,63.7,89.1,62.1,87.4
			z"/>
	</g>
	<g>
		<path d="M43.4,101.1h-4.8v-1.3h4.8v-1.3h1.6v1.3h2.6v1.3h-2.6v1.3h-1.6V101.1z M56.4,116.3c0,0.7-0.1,1.1-0.7,1.4
			c-0.5,0.2-1.4,0.2-2.8,0.2c-0.1-0.4-0.3-0.9-0.5-1.3c1,0,1.8,0,2,0c0.3,0,0.3-0.1,0.3-0.3v-4.5h-6.2v2.2l2.7-0.1
			c-0.3-0.5-0.6-1-0.9-1.4l1.2-0.4c0.9,1.2,1.9,2.7,2.2,3.8l-1.2,0.4c-0.1-0.4-0.3-0.8-0.5-1.3c-3.4,0.2-6.9,0.4-9.4,0.5l-0.1-1.4
			c1.2,0,2.9-0.1,4.6-0.2v-2.3h-6v6.1h-1.5v-6.1h-0.9v-1.3h0.9v-0.8h1.5v0.8h6v-1.3H41v-6.5h13.9v6.5h-6.3v1.3h7.7V116.3z
			 M42.5,105.4h4.6v-1.5h-4.6V105.4z M47.1,108.1v-1.5h-4.6v1.5H47.1z M57.2,99.8v1.3h-4.8v1.3h-1.6v-1.3h-2.5v-1.3h2.5v-1.3h1.6
			v1.3H57.2z M53.3,103.9h-4.7v1.5h4.7V103.9z M53.3,106.5h-4.7v1.5h4.7V106.5z"/>
		<path d="M68.3,113.5c0,0.4,0.1,1,0.2,1.3c-4.2,1.8-4.9,2.1-5.3,2.5c-0.1-0.3-0.4-0.9-0.7-1.2c0.3-0.2,0.8-0.6,0.8-1.5v-3.6h-3.1
			v-6.9h1.3v5.6h1.8v-7.2h-3.6v-1.4h3.6v-2.6h1.4v2.6h3.6v1.4h-3.6v7.2h1.8v-5.6h1.3v6.9h-3.1v3.8L68.3,113.5z M72.9,114.7
			c-1.2,1.2-3,2.5-4.6,3.3c-0.3-0.3-0.7-0.8-1.1-1c1.6-0.7,3.5-2,4.3-3L72.9,114.7z M72.6,103.2c0.1-0.7,0.3-1.6,0.4-2.3h-4.2v-1.4
			h10.1v1.4h-4.2c-0.2,0.8-0.4,1.6-0.6,2.3h4v10.5h-8.5v-10.5H72.6z M76.6,104.4h-5.5v1.9h5.5V104.4z M76.6,107.5h-5.5v1.9h5.5
			V107.5z M76.6,110.5h-5.5v1.9h5.5V110.5z M75.7,113.8c1.2,0.9,2.7,2.3,3.5,3.2L78,118c-0.7-0.9-2.2-2.3-3.4-3.3L75.7,113.8z"/>
	</g>
	<g>
		<path d="M222.1,791.1h-7.7v4.9h-1.6v-4.9h-9.9v-1.5h3.5v-5.7h6.4v-3.2h-5.2c-1,1.6-2.1,3.1-3.2,4.2c-0.3-0.3-1-0.8-1.4-1
			c2-1.8,3.8-4.5,4.8-7.4l1.6,0.4c-0.3,0.7-0.6,1.5-1,2.2h12.7v1.5h-6.7v3.2h6.3v1.5h-6.3v4.2h7.7V791.1z M212.8,789.5v-4.2H208v4.2
			H212.8z"/>
	</g>
	<polyline class="st5" points="94.8,75 94.8,759.6 1039.3,759.6 	"/>
	<line class="st5" x1="94.8" y1="622.7" x2="111.1" y2="622.7"/>
	<line class="st5" x1="94.8" y1="485.7" x2="111.1" y2="485.7"/>
	<line class="st5" x1="94.8" y1="348.8" x2="111.1" y2="348.8"/>
	<line class="st5" x1="94.8" y1="211.9" x2="111.1" y2="211.9"/>
	<line class="st5" x1="94.8" y1="75" x2="111.1" y2="75"/>
</g>
<g id="sen">
	
	<polyline id="yls" class="st6" points="919,454.1 769.2,227.6 619.3,299.6 469.4,283.7 319.6,219.9 169.7,194.9 	"/>
	<circle id="ylm" class="st1" cx="919" cy="454.1" r="16.4"/>

	<polyline id="zhs" class="st7" points="919,736.2 769.2,664.9 619.3,651.6 469.4,650.6 319.6,649.4 169.7,649.3 			"/>
	<circle id="zhm" class="st8" cx="919" cy="736.2" r="16.4"/>

	<polyline id="jys" class="st9" points="919,742.6 769.2,690.1 619.3,686.8 469.4,689.6 319.6,647.3 169.7,686.9 			"/>
	<circle id="jym" class="st10" cx="919" cy="742.6" r="16.4"/>

	<polyline id="tns" class="st11" points="919,579.4 769.2,579.4 619.3,578.5 469.4,637.7 319.6,659.7 169.7,689.2" stroke-dasharray="765.064">
	<animate id="tnsa" attributeName="stroke-dashoffset" from="765.064" to="1530.168" dur="1s"/>
	</polyline>
	<circle id="tnm" class="st12" cx="919" cy="578.5" r="16.4" opacity="0">
	<set id="tnma" attributeName="opacity" from="0" to="100" begin="tnsa.end"/>
	</circle>

</g>
<g id="ryo">
	<g id="ylr">
		<rect x="946.9" y="440.3" class="st2" width="92.3" height="26.3"/>
		<path class="st1" d="M948.1,461.9c5.5-4.9,8.7-8.7,8.7-11.8c0-2-1.1-3.3-3-3.3c-1.5,0-2.7,1-3.7,2.1l-2.2-2.2c1.8-2,3.6-3,6.4-3
			c3.8,0,6.3,2.4,6.3,6.2c0,3.6-3,7.6-6.7,11.1c1-0.1,2.3-0.2,3.3-0.2h4.4v3.4h-13.5V461.9z"/>
		<path class="st1" d="M964.1,461.9c5.5-4.9,8.7-8.7,8.7-11.8c0-2-1.1-3.3-3-3.3c-1.5,0-2.7,1-3.7,2.1l-2.2-2.2c1.8-2,3.6-3,6.4-3
			c3.8,0,6.3,2.4,6.3,6.2c0,3.6-3,7.6-6.7,11.1c1-0.1,2.3-0.2,3.3-0.2h4.4v3.4h-13.5V461.9z"/>
		<path class="st1" d="M980.4,467.8c2.1-0.8,3.3-2.1,3.3-3.7c-0.1,0-0.2,0-0.2,0c-1.3,0-2.5-0.8-2.5-2.4c0-1.4,1.2-2.4,2.6-2.4
			c1.8,0,2.9,1.5,2.9,3.9c0,3.2-1.9,5.6-5.1,6.7L980.4,467.8z"/>
		<path class="st1" d="M988.5,461.8l1.9-2.5c1.2,1.2,2.7,2.1,4.5,2.1c2,0,3.4-1,3.4-2.8c0-2-1.2-3.2-5.5-3.2v-2.9
			c3.7,0,4.9-1.3,4.9-3.1c0-1.6-1-2.5-2.7-2.5c-1.4,0-2.6,0.7-3.8,1.8l-2-2.4c1.7-1.5,3.7-2.5,6-2.5c3.9,0,6.5,1.9,6.5,5.4
			c0,2.2-1.2,3.8-3.4,4.6v0.1c2.3,0.6,4,2.3,4,4.9c0,3.7-3.2,5.8-7.1,5.8C992,464.6,989.9,463.4,988.5,461.8z"/>
		<path class="st1" d="M1005,454c0-7,2.7-10.4,6.8-10.4c4.1,0,6.8,3.4,6.8,10.4c0,6.9-2.7,10.5-6.8,10.5
			C1007.7,464.6,1005,461,1005,454z M1014.8,454c0-5.6-1.3-7.3-3-7.3c-1.7,0-3,1.6-3,7.3c0,5.7,1.3,7.4,3,7.4
			C1013.5,461.4,1014.8,459.7,1014.8,454z"/>
		<path class="st1" d="M1023.3,459.9c0.7,0.8,2,1.4,3.2,1.4c2.3,0,4.1-1.7,4.3-6.8c-1,1.4-2.7,2.2-4.1,2.2c-3.3,0-5.8-2.1-5.8-6.3
			c0-4.1,2.9-6.7,6.3-6.7c3.8,0,7.2,3,7.2,10c0,7.6-3.7,10.9-7.7,10.9c-2.5,0-4.3-1.1-5.5-2.3L1023.3,459.9z M1030.7,451.7
			c-0.4-3.7-1.7-5-3.5-5c-1.5,0-2.7,1.2-2.7,3.7c0,2.4,1.1,3.5,2.9,3.5C1028.5,453.9,1029.7,453.3,1030.7,451.7z"/>
	</g>
	<g id="zhr">
		<rect x="946.9" y="696.2" class="st2" width="92.3" height="29.2"/>
		<path class="st8" d="M949.2,716.9h4.3v-12.7h-3.6v-2.5c2-0.4,3.4-0.9,4.7-1.7h3v16.9h3.8v3.2h-12.1V716.9z"/>
		<path class="st8" d="M964.4,723.8c2.1-0.8,3.3-2.1,3.3-3.7c-0.1,0-0.2,0-0.2,0c-1.3,0-2.5-0.8-2.5-2.4c0-1.4,1.2-2.4,2.6-2.4
			c1.8,0,2.9,1.5,2.9,3.9c0,3.2-1.9,5.6-5.1,6.7L964.4,723.8z"/>
		<path class="st8" d="M982.2,703.4h-9v-3.3h13.4v2.4c-4.7,5.7-5.3,9.8-5.6,17.7h-4C977.2,713.2,978.3,708.7,982.2,703.4z"/>
		<path class="st8" d="M990,716.9h4.3v-12.7h-3.6v-2.5c2-0.4,3.4-0.9,4.7-1.7h3v16.9h3.8v3.2H990V716.9z"/>
		<path class="st8" d="M1006,716.9h4.3v-12.7h-3.6v-2.5c2-0.4,3.4-0.9,4.7-1.7h3v16.9h3.8v3.2H1006V716.9z"/>
	</g>
	<g id="jyr">
		<rect x="946.9" y="725.4" class="st2" width="92.3" height="27.7"/>
		<path class="st10" d="M949.2,746.1h4.3v-12.7h-3.6v-2.5c2-0.4,3.4-0.9,4.7-1.7h3v16.9h3.8v3.2h-12.1V746.1z"/>
		<path class="st10" d="M964.4,752.9c2.1-0.8,3.3-2.1,3.3-3.7c-0.1,0-0.2,0-0.2,0c-1.3,0-2.5-0.8-2.5-2.4c0-1.4,1.2-2.4,2.6-2.4
			c1.8,0,2.9,1.5,2.9,3.9c0,3.2-1.9,5.6-5.1,6.7L964.4,752.9z"/>
		<path class="st10" d="M972.9,747c5.5-4.9,8.7-8.7,8.7-11.8c0-2-1.1-3.3-3-3.3c-1.5,0-2.7,1-3.7,2.1l-2.2-2.2c1.8-2,3.6-3,6.4-3
			c3.8,0,6.3,2.4,6.3,6.2c0,3.6-3,7.6-6.7,11.1c1-0.1,2.3-0.2,3.3-0.2h4.4v3.4h-13.5V747z"/>
		<path class="st10" d="M1003,744.1h-2.4v5.2h-3.7v-5.2h-8.6v-2.7l7.5-12.2h4.8v11.8h2.4V744.1z M996.9,741.1V737
			c0-1.2,0.1-3,0.2-4.2h-0.1c-0.5,1.1-1,2.2-1.6,3.3l-3.1,5H996.9z"/>
		<path class="st10" d="M1005,739.2c0-7,2.7-10.4,6.8-10.4c4.1,0,6.8,3.4,6.8,10.4s-2.7,10.5-6.8,10.5
			C1007.7,749.7,1005,746.1,1005,739.2z M1014.8,739.2c0-5.6-1.3-7.3-3-7.3c-1.7,0-3,1.6-3,7.3c0,5.7,1.3,7.4,3,7.4
			C1013.5,746.6,1014.8,744.8,1014.8,739.2z"/>
	</g>
	<g id="tnr" opacity="0">
		<g>
		<rect x="946.9" y="564.6" class="st2" width="101.6" height="27.7"/>
		<path class="st12" d="M949.2,585.3h4.3v-12.7h-3.6v-2.5c2-0.4,3.4-0.9,4.7-1.7h3v16.9h3.8v3.2h-12.1V585.3z"/>
		<path class="st12" d="M963.6,586.1l1.9-2.5c1.2,1.2,2.7,2.1,4.5,2.1c2,0,3.4-1,3.4-2.8c0-2-1.2-3.2-5.5-3.2v-2.9
			c3.7,0,4.9-1.3,4.9-3.1c0-1.6-1-2.5-2.7-2.5c-1.4,0-2.6,0.7-3.8,1.8l-2-2.4c1.7-1.5,3.7-2.5,6-2.5c3.9,0,6.5,1.9,6.5,5.4
			c0,2.2-1.2,3.8-3.4,4.6v0.1c2.3,0.6,4,2.3,4,4.9c0,3.7-3.2,5.8-7.1,5.8C967.2,588.9,965,587.7,963.6,586.1z"/>
		<path class="st12" d="M980.4,592.1c2.1-0.8,3.3-2.1,3.3-3.7c-0.1,0-0.2,0-0.2,0c-1.3,0-2.5-0.8-2.5-2.4c0-1.4,1.2-2.4,2.6-2.4
			c1.8,0,2.9,1.5,2.9,3.9c0,3.2-1.9,5.6-5.1,6.7L980.4,592.1z"/>
		<path class="st12" d="M990,585.3h4.3v-12.7h-3.6v-2.5c2-0.4,3.4-0.9,4.7-1.7h3v16.9h3.8v3.2H990V585.3z"/>
		<path class="st12" d="M1016.2,572.7c-0.7-0.8-1.9-1.5-3.1-1.5c-2.3,0-4.2,1.7-4.4,6.8c1.1-1.3,2.8-2.1,4.1-2.1
			c3.4,0,5.8,2,5.8,6.3c0,4.1-2.9,6.7-6.3,6.7c-3.8,0-7.2-3.1-7.2-10.2c0-7.5,3.7-10.7,7.8-10.7c2.4,0,4.2,1,5.5,2.3L1016.2,572.7z
			 M1015,582.2c0-2.4-1.1-3.5-2.9-3.5c-1.1,0-2.3,0.6-3.3,2.1c0.4,3.7,1.7,5.1,3.4,5.1C1013.8,585.9,1015,584.6,1015,582.2z"/>
		<path class="st12" d="M1020.5,586.1l1.9-2.5c1.2,1.2,2.7,2.1,4.5,2.1c2,0,3.4-1,3.4-2.8c0-2-1.2-3.2-5.5-3.2v-2.9
			c3.7,0,4.9-1.3,4.9-3.1c0-1.6-1-2.5-2.7-2.5c-1.4,0-2.6,0.7-3.8,1.8l-2-2.4c1.7-1.5,3.7-2.5,6-2.5c3.9,0,6.5,1.9,6.5,5.4
			c0,2.2-1.2,3.8-3.4,4.6v0.1c2.3,0.6,4,2.3,4,4.9c0,3.7-3.2,5.8-7.1,5.8C1024,588.9,1021.9,587.7,1020.5,586.1z"/>
		</g>
		<set attributeName="opacity" from="0" to="100" begin="tnsa.end"/>
	</g>
</g>
<g id="ylt">
	<rect x="335.3" y="310" class="st1" width="119.4" height="119.4"/>
	<g>
		<rect x="351.8" y="389.6" class="st2" width="86.4" height="27.7"/>
		<path class="st4" d="M380.1,410.6h-5.8c1.7,1.3,3.7,3,4.8,4.1l-2.9,1.3c-0.3-0.4-0.7-0.8-1.1-1.2c-13.3,0.5-14.9,0.5-16.1,0.9
			c-0.2-0.6-0.7-2.1-1-3c0.5-0.1,1-0.4,1.6-0.8c0.4-0.2,1-0.7,1.8-1.3h-5.9v-2.4h24.6V410.6z M358.8,400.3h-2.9v-5.8h10.3v-0.9h-8.5
			v-2.3h20.1v2.3h-8.5v0.9h10.4v5.8h-3v-3.8h-7.4v7.2h-3.2v-7.2h-7.4V400.3z M358.1,402c1.6-0.4,3.9-1.1,6.3-1.8
			c-1.2-0.6-3.5-1.4-5.1-2l1.1-1.8c1.6,0.5,4,1.2,5.2,1.8l-1.1,1.9l0.9-0.3l0.4,2.1c-2.3,0.9-4.6,1.8-6.6,2.5L358.1,402z M377,407
			h-18.3v-2.3H377V407z M372.4,412.5c-0.6-0.5-1.2-1-1.8-1.4l1.1-0.5h-6c-0.8,0.7-1.7,1.5-2.6,2.1L372.4,412.5z M376.6,398.6
			c-1.5,0.7-3.5,1.3-5.1,1.6c2,0.6,4.5,1.5,5.9,2.1l-1,2.2c-1.5-0.7-4.5-1.8-6.7-2.5l0.9-1.8l-1-1.6c1.6-0.4,4-1.3,5.4-2
			L376.6,398.6z"/>
		<path class="st4" d="M392.3,407.1c-0.5-0.9-1.3-2.2-2.1-3.4v12.2h-3.2V405c-1,2.5-2.1,4.8-3.5,6.3c-0.3-0.9-1.1-2.3-1.6-3.1
			c1.9-2.1,3.7-5.7,4.6-9h-3.8v-3h4.3v-5.6h3.2v5.6h3.6v3h-3.6v0.4c0.8,0.8,3.5,3.9,4.1,4.6L392.3,407.1z M403,399.2
			c1.1,3.7,3,7.5,5,9.8c-0.8,0.6-1.8,1.7-2.4,2.5c-1.2-1.6-2.3-3.9-3.2-6.5v10.9h-3.3v-11c-1.3,2.9-2.9,5.5-4.7,7.3
			c-0.4-0.9-1.2-2.2-1.8-3c2.5-2.4,4.7-6.2,6-10h-3.9v-3h4.5v-5.6h3.3v5.6h4.8v3H403z"/>
		<path class="st4" d="M413.7,408.5c-0.5,2.1-1.5,4.4-2.3,5.9c-0.5-0.4-1.6-1-2.2-1.3c0.8-1.3,1.6-3.3,2.1-5.2L413.7,408.5z
			 M429.3,406.4v7.2c0,1.1-0.2,1.5-1,1.9c-0.7,0.3-1.7,0.3-3.1,0.3c-0.1-0.7-0.4-1.4-0.7-2c0.7,0,1.5,0,1.7,0c0.3,0,0.4-0.1,0.4-0.3
			v-6.9c-2.9,0.2-3.6,0.3-4.1,0.5c-0.1-0.5-0.5-1.7-0.8-2.4v2.5h-4.5v8.4h-2.7v-8.4h-4.9v-2.6h1.1v-13.2h10.1v13.2h0.9v0
			c0.8-0.1,1.5-0.6,2.6-1.4c0.6-0.4,1.7-1.3,3.1-2.6c-3.5,0.2-4.3,0.4-4.8,0.6c-0.1-0.5-0.5-1.7-0.8-2.3c0.5-0.1,1-0.4,1.7-0.8
			c0.7-0.4,2.8-1.9,4.3-3.6c-1.9,0.7-3.8,1.3-5.6,1.8c-0.2-0.7-0.6-1.7-1-2.3c3.1-0.9,6.6-2.3,8.7-3.7l2.1,2.4
			c-1.2,0.7-2.6,1.3-4,1.8l2.3,1.2c-1.1,1-2.2,1.9-3.4,2.7l3.1-0.1c0.6-0.7,1.2-1.4,1.8-2.1l2.2,1.6c-2.2,2.4-4.6,4.6-7.1,6.4
			l4.2-0.2c-0.4-0.7-0.8-1.4-1.1-2l2.2-1.1c1,1.6,2.3,3.9,2.9,5.3l-2.3,1.2c-0.1-0.3-0.3-0.7-0.5-1.1L429.3,406.4z M413.3,393.8v1.3
			h4.8v-1.3H413.3z M418,397h-4.8v1.3h4.8V397z M413.3,401.4h4.8v-1.1h-4.8V401.4z M413.3,404.6h4.8v-1.2h-4.8V404.6z M419.8,407.8
			c0.7,1.2,1.4,2.8,1.7,3.9l-2.2,1c-0.3-1.1-1-2.8-1.6-4L419.8,407.8z M426.1,408.2c-0.8,2.2-2,4.7-3.3,6.4
			c-0.5-0.5-1.5-1.1-2.1-1.4c1.2-1.5,2.3-3.9,2.8-5.7L426.1,408.2z M432,407.3c1,1.8,2.2,4.2,2.7,5.6l-2.5,1.2
			c-0.5-1.5-1.7-4-2.6-5.8L432,407.3z"/>
	</g>
	<path class="st4" d="M360.7,378.4h2.7l1.1-1.3l-0.8-1.6v-1.9l2.4-0.7l1.1,0.7h1.7l1.9-1.8l1.7-1.7l3.7-1.7l2.4-2.4v-2.5l2.1-1.4
		l2.5-0.5l4.1-0.1l8.3-2.4l2.8-0.2l4.4,0.5l3.7-1l0.9,2.1l2.1,3l3.2,1.7l3.6,1l2.7,0.3l2.4-1.4l1.7-1.6c0,0,1.7-1,1.9-1
		c0.2,0,1.7,1,1.7,1l1,2.9l1.2,1.2l3.1-0.3l4.6,0.1l4.2,1.1l1.1-1.3v-2.9v-2.8l-1.9-0.4l-3.1-0.4l-3.3-0.4l-3.5-0.7l-2-1l0.4-3
		l0.3-3.6l0.1-3.3l-0.3-3.2l0.2-3.2l3-1.3l-0.5-2.6l-0.8-2.1l-1.8-3.1l-1.9-1l-4.3-0.2l-7.5-2.1l-3.3-0.1l-3.7-0.8l-6.5-0.1
		l-2.9-1.4l-1.7-2.6l-1.9-1.2l-6.6-1.2l-2.2-0.1l-2.6,1.6l-4.8,2.5l-1.9-0.2l-1.5-1.5l-3.6,0.4l-3.5,1.3l-3.2,2l-2.3,2.6l-1.5,4.4
		l-0.6,4.6L359,344l-1.7,2.4l-3.3,0.8c0,0-0.3,1.9-0.3,2.1c0,0.3-0.5,3.1-0.5,3.1l-1.7,4.4l-0.9,3.5l-2.8,4l-0.1,2l1.7,3.1l0.1,2.9
		l0.9,2l3.1,1l3.7,1.3l0,0l1.3,0.6L360.7,378.4z"/>
	<polygon class="st1" points="395,276.6 382.2,315 407.8,315 	"/>
</g>
<g id="zht">
	<rect x="125.7" y="474.1" class="st8" width="119.4" height="119.4"/>
	<g>
		<rect x="142.2" y="553.8" class="st2" width="86.4" height="27.7"/>
		<path class="st4" d="M161.1,563.3h-15.5v-2.5h3.6c-0.2-0.5-0.4-1-0.6-1.4l1.6-0.4h-3.9v-2.4h5.7c-0.2-0.4-0.4-0.8-0.6-1.2l2.6-0.9
			c0.4,0.7,0.8,1.4,1,2.1h5.6v2.4h-3.5l1.5,0.3c-0.4,0.6-0.7,1.1-1,1.5h3.1l-0.1-0.1c2.2-1.2,4.8-3.5,6.2-5.6l3.1,1.2
			c-1.8,2.6-4.5,5-7,6.5c-0.5-0.6-1.3-1.4-2-1.9V563.3z M155,576.2v3.9h-3.1v-3.9h-5.6v-2.6h5.6v-1.4h-4.4v-8h12.2v8H155v1.4h5.5
			v2.6H155z M150.5,567.3h6.1v-1.2h-6.1V567.3z M150.5,570.3h6.1v-1.2h-6.1V570.3z M151.4,558.9c0.4,0.6,0.7,1.3,0.8,1.8h2.8
			c0.3-0.6,0.6-1.3,0.8-1.8H151.4z M171.1,570.9c-2.1,3.8-5.5,6.8-9.3,8.8c-0.5-0.8-1.4-1.9-2.2-2.6c3.4-1.5,6.7-4.2,8.5-7.4
			L171.1,570.9z M170.6,563.7c-2,2.7-5,5.2-7.8,6.8c-0.5-0.7-1.4-1.7-2.3-2.3c2.5-1.3,5.5-3.5,7.1-5.8L170.6,563.7z"/>
		<path class="st4" d="M182.5,555.8c-0.7,1.7-1.6,3.5-2.6,5.2v19.1h-3.1v-14.6c-0.9,1.1-1.7,2-2.6,2.9c-0.3-0.8-1.2-2.6-1.7-3.4
			c2.8-2.4,5.5-6.3,7-10.1L182.5,555.8z M193.2,576.6c1.4,0,1.6-1.1,1.8-5.6c0.7,0.6,2,1.2,2.9,1.4c-0.4,5.2-1.2,7.1-4.5,7.1h-4.5
			c-3.3,0-4.3-1.1-4.3-4.8v-19.5h3.1v6.9h9.5v3.1h-9.5v9.5c0,1.6,0.2,1.9,1.5,1.9H193.2z"/>
		<path class="st4" d="M204.1,572.7c-0.5,2.1-1.5,4.4-2.3,5.9c-0.5-0.4-1.6-1-2.2-1.3c0.8-1.3,1.6-3.3,2.1-5.2L204.1,572.7z
			 M219.7,570.5v7.2c0,1.1-0.2,1.5-1,1.9c-0.7,0.3-1.7,0.3-3.1,0.3c-0.1-0.7-0.4-1.4-0.7-2c0.7,0,1.5,0,1.7,0c0.3,0,0.4-0.1,0.4-0.3
			v-6.9c-2.9,0.2-3.6,0.3-4.1,0.5c-0.1-0.5-0.5-1.7-0.8-2.4v2.5h-4.5v8.4h-2.7v-8.4H200v-2.6h1.1v-13.2h10.1v13.2h0.9v0
			c0.8-0.1,1.5-0.6,2.6-1.4c0.6-0.4,1.7-1.3,3.1-2.6c-3.5,0.2-4.3,0.4-4.8,0.6c-0.1-0.5-0.5-1.7-0.8-2.3c0.5-0.1,1-0.4,1.7-0.8
			c0.7-0.4,2.8-1.9,4.3-3.6c-1.9,0.7-3.8,1.3-5.6,1.8c-0.2-0.7-0.6-1.7-1-2.3c3.1-0.9,6.6-2.3,8.7-3.7l2.1,2.4
			c-1.2,0.7-2.6,1.3-4,1.8l2.3,1.2c-1.1,1-2.2,1.9-3.4,2.7l3.1-0.1c0.6-0.7,1.2-1.4,1.8-2.1l2.2,1.6c-2.2,2.4-4.6,4.6-7.1,6.4
			l4.2-0.2c-0.4-0.7-0.8-1.4-1.1-2l2.2-1.1c1,1.6,2.3,3.9,2.9,5.3l-2.3,1.2c-0.1-0.3-0.3-0.7-0.5-1.1L219.7,570.5z M203.7,557.9v1.3
			h4.8v-1.3H203.7z M208.5,561.2h-4.8v1.3h4.8V561.2z M203.7,565.6h4.8v-1.1h-4.8V565.6z M203.7,568.8h4.8v-1.2h-4.8V568.8z
			 M210.2,572c0.7,1.2,1.4,2.8,1.7,3.9l-2.2,1c-0.3-1.1-1-2.8-1.6-4L210.2,572z M216.5,572.3c-0.8,2.2-2,4.7-3.3,6.4
			c-0.5-0.5-1.5-1.1-2.1-1.4c1.2-1.5,2.3-3.9,2.8-5.7L216.5,572.3z M222.4,571.4c1,1.8,2.2,4.2,2.7,5.6l-2.5,1.2
			c-0.5-1.5-1.7-4-2.6-5.8L222.4,571.4z"/>
	</g>
	<polygon class="st4" points="162.8,539.9 167.1,537.6 169.5,536.2 171.5,536.3 177.4,537.5 179.1,538.6 180.7,540.9 183.3,542.2 
		189.1,542.3 192.5,543.1 195.4,543.1 202.1,545 206,545.2 208.1,546.3 209.1,544.7 210.6,544.7 212.6,544.1 214.9,542.1 
		214.6,540.7 211.4,540.1 209.6,539.6 208.2,538.5 206.4,536.4 204.9,535.1 205.6,533.1 204.9,531.6 206.5,529.4 206.2,527.3 
		205.6,523.8 205.7,520.6 205,518.7 203.9,516.7 206.2,515.8 207.1,514.9 206.4,513.6 206.1,511.7 206.8,510.1 208.5,510.2 
		210.7,511 212.2,510.3 211.2,508.6 208.9,506.6 206.4,507.4 205.6,505.9 204.7,504.5 205.3,502 205.2,499.2 203,496.5 198.5,494.6 
		194.4,493 192.9,492.9 192,489.8 190.8,486.1 188.7,484 187.1,482.8 187,482.8 185.8,485.8 183.6,486 181.3,486.5 178.6,489 
		177.1,491.8 180.3,493.8 179.5,499.2 176.7,499.9 174.6,504.2 172.5,506.1 170,509.4 166.9,512.5 165.5,512.1 163.7,513.2 
		164.7,516.6 162.3,520.9 161.1,523.2 159.1,528.8 156.4,533.8 155.9,536.3 159.7,538.3 161.1,539.7 	"/>
	<polygon class="st8" points="185.4,627.3 198.3,588.8 172.6,588.8 	"/>
</g>
<g id="jyt">
	<rect x="260.3" y="474.1" class="st10" width="119.4" height="119.4"/>
	<g>
		<rect x="276.8" y="553.8" class="st2" width="86.4" height="27.7"/>
		<path class="st4" d="M299.4,568.7c-0.3,0.4-0.5,0.8-0.7,1.2h6v2.4h-16.8c0,0.4-0.1,0.8-0.2,1.2h5.1c0,0,0,0.6-0.1,1
			c-0.2,2.7-0.5,4-1.1,4.6c-0.5,0.5-1,0.7-1.7,0.7c-0.6,0.1-1.7,0.1-2.9,0c0-0.7-0.3-1.7-0.6-2.3c0.8,0.1,1.7,0.1,2,0.1
			c0.4,0,0.6,0,0.8-0.2c0.2-0.2,0.4-0.7,0.5-1.7h-2.6c-0.8,2-2.4,3.4-5.6,4.3c-0.3-0.7-0.9-1.6-1.5-2.1c2-0.5,3.3-1.3,3.9-2.2h-2.8
			v-2.3h3.8c0.1-0.4,0.1-0.8,0.2-1.2h-4.3v-2.4h6.3c-0.2-0.4-0.4-0.9-0.7-1.3l2-0.3h-5v-5.5h18.6v5.5h-4.8L299.4,568.7z
			 M304.9,556.2v2.3h-10.5v1.1h8.6v2.2h-20.1v-2.2h8.3v-1.1h-10.2v-2.3h10.2v-1.5h3.3v1.5H304.9z M286.5,566.3H299V565h-12.5V566.3z
			 M289.7,568.4c0.4,0.5,0.7,1.1,0.9,1.5h4.9c0.2-0.5,0.4-1.1,0.6-1.5H289.7z M293.9,573.1h9.7v6.9h-3v-0.6h-3.9v0.7h-2.9V573.1z
			 M296.7,575.3v1.8h3.9v-1.8H296.7z"/>
		<path class="st4" d="M330.5,573.3c-0.8,1.1-2,2.1-3.2,3c0.7,0.5,1.3,0.8,2,0.8c0.7,0,0.8-0.5,1-2c0.6,0.6,1.6,1,2.4,1.2
			c-0.4,3-1.3,3.7-3.5,3.7c-1.8,0-3.3-0.8-4.6-2.1c-1.7,0.9-3.6,1.6-5.5,2.1c-0.3-0.7-1.1-1.9-1.6-2.6c1.9-0.4,3.8-1,5.5-1.7
			c-0.5-1-1-2-1.4-3.2h-5.3v1l4.1-0.2l0,2.2l-4,0.3v1.4c0,1.4-0.3,2.1-1.3,2.4c-1.1,0.4-2.4,0.4-4.5,0.4c-0.2-0.8-0.5-1.8-0.9-2.5
			c1.2,0.1,2.7,0.1,3.1,0c0.4,0,0.5-0.1,0.5-0.5v-1.1c-1.9,0.2-3.7,0.3-5.2,0.4l-0.2-2.5c1.5-0.1,3.4-0.1,5.5-0.2v-1.2h-5.4v-2.4
			h5.4v-1.1c-1.4,0.1-2.9,0.2-4.2,0.2c-0.1-0.5-0.4-1.4-0.7-1.9c3.3-0.2,7.2-0.6,9.6-1.1h-10v-2.4h10.4v-1h-7.7v-2.2h7.7v-1h-9.2
			v-2.4h4.8c-0.3-0.6-0.7-1.1-1-1.6l2.8-0.9c0.7,0.7,1.4,1.8,1.7,2.5h5.5c0.5-0.8,1-1.8,1.2-2.6l3.6,0.7c-0.5,0.7-1,1.4-1.4,1.9h4.7
			v2.4h-9.3v1h7.9v2.2h-7.9v1h10.5v2.4h-5.4c1.5,0.6,3.3,1.5,4.3,2.3l-1.4,1.6h2.7v2.4h-4.1L330.5,573.3z M321,570.2
			c-0.2-1.1-0.4-2.3-0.4-3.5h3.1c0.1,1.2,0.2,2.4,0.5,3.5h4.5c-1.1-0.8-2.6-1.6-4-2.1l1.7-1.8h-8l1.8,1.8c-1.1,0.2-2.4,0.5-3.8,0.7
			v1.4H321z M324.8,572.5c0.2,0.6,0.5,1.2,0.8,1.7c0.8-0.5,1.4-1.1,2-1.7H324.8z"/>
		<path class="st4" d="M338.7,572.7c-0.5,2.1-1.5,4.4-2.3,5.9c-0.5-0.4-1.6-1-2.2-1.3c0.8-1.3,1.6-3.3,2.1-5.2L338.7,572.7z
			 M354.3,570.5v7.2c0,1.1-0.2,1.5-1,1.9c-0.7,0.3-1.7,0.3-3.1,0.3c-0.1-0.7-0.4-1.4-0.7-2c0.7,0,1.5,0,1.7,0c0.3,0,0.4-0.1,0.4-0.3
			v-6.9c-2.9,0.2-3.6,0.3-4.1,0.5c-0.1-0.5-0.5-1.7-0.8-2.4v2.5h-4.5v8.4h-2.7v-8.4h-4.9v-2.6h1.1v-13.2h10.1v13.2h0.9v0
			c0.8-0.1,1.5-0.6,2.6-1.4c0.6-0.4,1.7-1.3,3.1-2.6c-3.5,0.2-4.3,0.4-4.8,0.6c-0.1-0.5-0.5-1.7-0.8-2.3c0.5-0.1,1-0.4,1.7-0.8
			c0.7-0.4,2.8-1.9,4.3-3.6c-1.9,0.7-3.8,1.3-5.6,1.8c-0.2-0.7-0.6-1.7-1-2.3c3.1-0.9,6.6-2.3,8.7-3.7l2.1,2.4
			c-1.2,0.7-2.6,1.3-4,1.8l2.3,1.2c-1.1,1-2.2,1.9-3.4,2.7l3.1-0.1c0.6-0.7,1.2-1.4,1.8-2.1l2.2,1.6c-2.2,2.4-4.6,4.6-7.1,6.4
			l4.2-0.2c-0.4-0.7-0.8-1.4-1.1-2l2.2-1.1c1,1.6,2.3,3.9,2.9,5.3l-2.3,1.2c-0.1-0.3-0.3-0.7-0.5-1.1L354.3,570.5z M338.2,557.9v1.3
			h4.8v-1.3H338.2z M343,561.2h-4.8v1.3h4.8V561.2z M338.2,565.6h4.8v-1.1h-4.8V565.6z M338.2,568.8h4.8v-1.2h-4.8V568.8z
			 M344.7,572c0.7,1.2,1.4,2.8,1.7,3.9l-2.2,1c-0.3-1.1-1-2.8-1.6-4L344.7,572z M351,572.3c-0.8,2.2-2,4.7-3.3,6.4
			c-0.5-0.5-1.5-1.1-2.1-1.4c1.2-1.5,2.3-3.9,2.8-5.7L351,572.3z M357,571.4c1,1.8,2.2,4.2,2.7,5.6l-2.5,1.2c-0.5-1.5-1.7-4-2.6-5.8
			L357,571.4z"/>
	</g>
	<path class="st4" d="M370.2,506.7l-2.4,0.5l-1.5-0.5l-1.9-1.6l-2.1-1.7l-1.8-1.2l-1.3-0.9l-0.2-1.8l-0.2-1.6l1-1.9l0.2-3.2l1.1-2.2
		l-1-0.6h-1.9l-2.5-0.9l-0.9-1.9l-0.7-0.8l-1.7-0.3l-2.8,1.1l0,0l0.3,0.1v2.4v2.5l-0.9,1.1l-3.5-0.9l-3.9-0.1l-2.6,0.3l-1-1
		l-0.9-2.4c0,0-1.3-0.9-1.5-0.9s-1.6,0.9-1.6,0.9l-1.5,1.4l-2,1.2l-2.3-0.2l-3.1-0.9l-2.7-1.4l-1.8-2.6l-0.8-1.8l-3.2,0.9l-3.7-0.4
		l-2.4,0.2l-7,2.1l-3.5,0.1l-2.1,0.4l-1.8,1.1v2.1l-2,2l-3.2,1.4l-1.5,1.5l-1.6,1.5h-1.5l-0.9-0.6l-2,0.6v1.6l0.6,1.4l-0.9,1.1h-2.3
		l-1.7-0.8l-1.1-0.5l-1,0.7l-2.1,0.4l-2.6-0.8l-2-2.5l-2.3,0.6c0,0,0.4,1.2,0.4,1.4s0,2.2,0,2.2l0.8,1.5l2.1,0.8l-0.2,1.1l-0.7,2.6
		l1.2,2.1l-0.4,1.7l-0.2,2.6l0.4,2l-1.2,1.9c0,0-0.8,3.6-0.7,3.8c0.1,0.2,0.1,4.9,0.1,4.9l-0.1,0.1l4,1.8l2.3,1.4l1.8,1.2l2-0.1
		l2.2-1.8l1.7-1.9l1.6-2.1l2.2-0.4l0.6-1.4l1.3-0.9l1.6-1.9l1.8-0.4l3.7-1.6l2.3-1.5l1.8-1.3l1.8-0.9l2.7,0.3l3.5,0.5l1.6-0.8
		l2.3-0.3l3.2,0.8l3.2,1.8l-0.5,0.9l-1.4,2.1l1.3,1l1.6,1.3l-0.3,1.7l1.1,1.6l0.3,1.4l1.2,1.8h2.6l-1.4,1.8l-1.2,1.6v3.6l0.6,1.7
		v2.6l0.4,1.7l2.6,0.7l3.4,0.8l1.1-1.6l1-2.4l1.6,1.5l0.8,2.2l1.6,0.7l2.9-0.3l0.1-2.2l0.2-3.1l-1.1-3.1l1-2.8l1.5-0.1l2.2,0.5
		l2,0.6l1.5-1.8l2.6-2.7l3.3-2.3l1.3-1.5h1.4l3.5-2.5l2.6-2.1l1.5-2.9v-3.1l1.4-0.6l2.6-2.3l0.9-1.9l3-2.1l2.3-2.1L370.2,506.7z
		 M321.8,508.6l-1.5,1.4l-1.2,1.6l-1.5-0.3l-1.2-1.1l-1.4,1.5l-1.5,1.4h-1.6l-1.1-1.1l-0.8-1.8l-1.5-0.6h-2.5l-0.7-0.8l0.7-2.1
		l-0.6-1.2l-0.8-1.4l-0.8-1l1.9-0.1l1.9-0.5l2.2,0.1l1.9-1.5l1.8-0.4l1.1,1.5l1.8,0.4l1.8,0.7l1.4,1.2l1.4,1.6l1.5,1.4L321.8,508.6z
		"/>
	<polygon class="st10" points="320,627.3 332.8,588.8 307.1,588.8 	"/>
</g>
<g id="tnt" opacity="0">
	<rect x="559.6" y="409.2" class="st12" width="119.4" height="119.4"/>
	<g>
		<rect x="576.1" y="488.8" class="st2" width="86.4" height="27.7"/>
		<path class="st4" d="M604.2,491.1v2h-10.5v0.9h8.3v1.9h-19.6v-1.9h8.1V493h-10.3v-2h10.3v-1.4h3.3v1.4H604.2z M593.7,512.3H604
			v2.2h-23.7v-2.2h10.1v-0.9H583v-1.9h7.4v-0.8c-4.6,0.1-5.5,0.2-6.1,0.4c-0.1-0.4-0.4-1.4-0.7-2c0.4-0.1,0.9-0.2,1.4-0.4
			c0.3-0.1,1-0.4,1.8-0.8h-3.7v-0.5h-2.8v-4h23.4v4h-3v-2h-17.5v0.8h17.4v1.7h-1.9c1.2,0.7,2.3,1.5,3,2.1l-1.8,1.5h1.6v1.9h-8V512.3
			z M601.2,496.6v4.1h-17.8v-4.1H601.2z M598,498.2h-11.7v1H598V498.2z M590.5,506c-0.6,0.4-1.2,0.7-1.8,1l7.4-0.1
			c-0.5-0.3-1-0.6-1.5-0.8l0.1-0.1H590.5z M593.7,509.6h6.1c-0.3-0.3-0.8-0.7-1.2-1l-4.9,0.1V509.6z"/>
		<path class="st4" d="M620.7,495c-0.1,0.7-0.2,1.4-0.4,2h10v14.8c0,1.6-0.4,2.3-1.5,2.8c-1.1,0.4-2.7,0.5-4.9,0.5
			c-0.1-0.8-0.6-2-1-2.7c1.3,0.1,3,0.1,3.4,0.1c0.5,0,0.6-0.1,0.6-0.6V500h-5.2l2.7,0.5c-0.4,1-0.8,2-1.1,2.9h2v2.5h-4.6v1.8h5.2
			v2.6h-5.2v4h-3v-4h-5v-2.6h5v-1.8h-4.5v-2.5h2.1c-0.2-0.8-0.7-1.9-1.1-2.7l2.6-0.6c0.5,0.9,1,2.1,1.2,3l-1.4,0.4h4
			c0.4-1.1,0.8-2.4,1-3.4h-10v15h-3.3v-18h8.8c0.1-0.7,0.2-1.3,0.3-2h-10.1v-3h10.5c0.1-0.8,0.1-1.6,0.1-2.3l3.6,0.3
			c-0.1,0.6-0.2,1.3-0.3,2h10.1v3H620.7z"/>
		<path class="st4" d="M648.1,496.5v3h8.8v9.2c0,1.6-0.3,2.5-1.5,3c-1.1,0.5-2.7,0.5-4.8,0.5c-0.1-1-0.6-2.3-1.1-3.2
			c1.4,0.1,3,0.1,3.4,0.1c0.5,0,0.6-0.1,0.6-0.5v-6h-5.4v12.2h-3.4v-12.2h-5v9.5h-3.3v-12.7h8.3v-3h-10.6v-3.2H645
			c-0.4-1-0.9-2.1-1.4-3l3.2-1c0.7,1.2,1.6,2.9,2,4h10v3.2H648.1z"/>
	</g>
	<path class="st4" d="M605.3,479.1l2,1.2l1.7,1l1.4,0.5h1.2l0.4-1.7l1.2,0.7l1.8,0.2l2.8,0.5l2.3,0.4l1-1.9l1.3-1l2-1.9l1.6,1
		l1.7,0.9h1.7l0.8-3.5l1.2-3l1-3.2l1.5-0.8l3.2-2.6l2.6-2l5.7-4.3l2.1-2.3l1.7-2.8l1-3.3l1.5-1.7l1.8-1.2l0.5-1.1l0.6-3.3l0.6-2.4
		l-2.6,0.3l-1.4-0.6l-0.7-1.9l-1.4-1.3l-0.9,2.1l-1,1.4l-3-0.7l-2.2-0.6l-0.4-1.5v-2.3l-0.5-1.5v-3.1l1.1-1.4l1.2-1.6h-2.3l-1-1.5
		l-0.3-1.2l-1-1.4l0.3-1.5l-1.4-1.1l-1.1-0.9l1.2-1.8l0.5-0.8l-2.8-1.6l-2.8-0.7l-2,0.3l-1.4,0.7l-3-0.4l-2.3-0.3l-1.6,0.8l-1.5,1.1
		l-2,1.3l-3.2,1.4l-1.6,0.3l-1.4,1.7l-1.1,0.8l-0.6,1.2l-1.9,0.4l-1.4,1.8l-1.5,1.6l-1.9,1.6l-1.7,0.1l-1.6-1l-2-1.2l-3.4-1.6
		l-1.4,1l-1.7,2l-1.1,1.1l-0.4,3c0,0-0.6,4-0.6,4.3c0.1,0.3-1.1,5.2-1.1,5.2l-1.2,4.1c0,0-1.8,4.4-1.9,4.5s-1.5,2.3-1.6,2.5
		c-0.1,0.2-1.1,2.1-1.1,2.1l0.5,1.2c0,0,0.5,2.1,0.4,2.3c-0.1,0.2-0.2,1.6-0.2,1.6l1.3,1.1l3.3,0.6l2.3,1.5l2,2.3l1.6,1.4l1.5-0.5
		l-0.4,1.9l0.7,1.5l2.3,2.1l0.9,2.1c0,0,0.1,1.9,0.2,3.2l2-0.4L605.3,479.1z"/>
	<polygon class="st12" points="619.3,562.3 632.1,523.9 606.5,523.9 	"/>
	<set attributeName="opacity" from="0" to="100" begin="tnsa.end" fill="freeze"/>
</g>
</svg>
